<svg xmlns="http://www.w3.org/2000/svg" width="30.615" height="30.615" viewBox="0 0 30.615 30.615">
  <path id="Linkedin-Icon-SVG-09yudf" d="M766.808,561a15.308,15.308,0,1,0,15.308,15.308A15.309,15.309,0,0,0,766.808,561Zm-4.448,23.141h-3.728V572.925h3.728ZM760.5,571.393h-.024a2.13,2.13,0,1,1,.024,0ZM775.8,584.141h-3.728v-6c0-1.508-.54-2.537-1.889-2.537a2.04,2.04,0,0,0-1.913,1.363,2.551,2.551,0,0,0-.123.91v6.263h-3.728s.049-10.164,0-11.216h3.728v1.588a3.7,3.7,0,0,1,3.36-1.851c2.453,0,4.292,1.6,4.292,5.048Zm0,0" transform="translate(-751.5 -561)"/>
</svg>
