<?xml version="1.0" encoding="UTF-8" standalone="no"?>
<svg
   version="1.1"
   viewBox="0.00 0.00 866.00 557.00"
   id="svg1319"
   sodipodi:docname="not-found.svg"
   inkscape:version="1.2.2 (b0a84865, 2022-12-01)"
   xmlns:inkscape="http://www.inkscape.org/namespaces/inkscape"
   xmlns:sodipodi="http://sodipodi.sourceforge.net/DTD/sodipodi-0.dtd"
   xmlns="http://www.w3.org/2000/svg"
   xmlns:svg="http://www.w3.org/2000/svg">
  <defs
     id="defs1323" />
  <sodipodi:namedview
     id="namedview1321"
     pagecolor="#ffffff"
     bordercolor="#666666"
     borderopacity="1.0"
     inkscape:showpageshadow="2"
     inkscape:pageopacity="0.0"
     inkscape:pagecheckerboard="0"
     inkscape:deskcolor="#d1d1d1"
     showgrid="false"
     inkscape:zoom="0.91250282"
     inkscape:cx="338.62909"
     inkscape:cy="219.72535"
     inkscape:window-width="1800"
     inkscape:window-height="1042"
     inkscape:window-x="0"
     inkscape:window-y="44"
     inkscape:window-maximized="0"
     inkscape:current-layer="svg1319" />
  <clipPath
     id="clipping-path-0">
    <path
       d="   M 0.00 0.00   L 866.00 0.00   L 866.00 557.00   L 0.00 557.00   L 0.00 0.00   Z"
       id="path132" />
  </clipPath>
  <g
     id="g601">
    <path
       fill="#052361"
       d="m 712.5,420.71 q -4.96,8.53 -14.3,11.64 -0.59,0.2 -0.35,0.78 l 3.65,8.66 q 3.23,7.95 6.55,15.87 c 3.1,7.37 -3.83,13.59 -10.55,8.83 q -15.2,-10.79 -30.32,-21.67 -0.42,-0.3 -1.09,-0.37 l -15.44,-11.36 q -0.39,-0.29 -0.88,-0.29 l -13.64,0.15 q -0.51,0 -0.94,0.28 -7.79,5.14 -15.03,11.21 -1.17,0.28 -1.91,0.81 -13.74,9.84 -27.49,19.66 -3.82,2.73 -4.6,3.03 c -3.9,1.49 -8.73,-1.85 -9.11,-5.93 -0.4,-4.26 5.62,-15.64 7.49,-20.01 l 3.76,-9.04 q 0.19,-0.46 -0.29,-0.61 -9.49,-2.96 -14.51,-11.64 -1.62,-4.91 -2.35,-14.39 -3.07,-39.75 -5.97,-79.29 a 0.29,0.3 62.4 0 0 -0.52,-0.16 c -7.84,9.27 -12.31,20.72 -15.8,32.17 q -0.16,0.51 0.29,0.79 c 24.5,15.81 21.6,49.57 -2.63,63.96 -4.13,2.46 -5.37,1.1 -7.76,-2.14 q -4.32,-5.84 -8.21,-11.96 -0.26,-0.42 -0.62,-0.08 -6.77,6.44 -12.46,11.12 c -4.42,3.63 -9.29,-4.06 -11.77,-7.64 -12.68,-18.34 -7.48,-43.18 12.31,-53.85 2.4,-1.3 6.54,-2.61 9.66,-4.45 q 0.44,-0.26 0.58,-0.74 c 5.23,-17.84 15.23,-43.64 34.6,-50.55 a 0.91,0.91 0 0 0 0.58,-1.04 q -0.79,-3.69 0.3,-7.13 3.92,-12.36 8.07,-24.64 0.93,-2.76 1.02,-6 c 0.96,-32.89 23.25,-59.35 55.08,-67.09 5.53,-1.35 12.04,-7.27 16.53,-10.81 q 0.71,-0.56 -0.19,-0.47 -3.08,0.33 -6.07,1.05 c -5.96,1.45 -28.14,7.91 -32.85,5.82 -3.78,-1.67 -1.91,-5.81 0.82,-7.77 8.81,-6.32 25.5,-17.08 26.56,-28.62 0.51,-5.59 -8.31,-3.77 -11.13,-2.92 q -0.54,0.17 -0.69,0.7 -0.46,1.62 -2.35,1.78 -0.84,0.08 -0.61,0.89 l 0.52,1.84 q 0.12,0.46 0.6,0.53 l 1.89,0.28 q 0.66,0.1 0.52,0.75 l -1.48,7.29 q -0.11,0.56 -0.67,0.69 -0.93,0.22 -1.82,-0.5 -0.63,-0.51 -1.03,0.19 l -1.13,1.95 q -0.31,0.54 0.19,0.92 l 1.4,1.06 q 0.71,0.54 0.05,1.14 l -5.74,5.2 q -0.47,0.43 -0.88,-0.07 l -1.19,-1.46 q -0.35,-0.43 -0.89,-0.36 -3.1,0.43 -1.9,3.35 0.36,0.87 -0.57,0.97 l -7.67,0.85 q -0.62,0.07 -0.62,-0.56 v -1.6 q 0,-1.23 -0.69,-0.21 c -9.51,13.87 -21.92,27.95 -39.94,30.07 -18.12,2.14 -35.16,-5.83 -47.17,-19.27 -2.16,-2.42 -1.5,-5.93 1.81,-6.81 q 24.14,-6.4 33.72,-29.48 c 10.23,-24.67 13.62,-54.63 47.08,-57.41 11.4,-0.94 25.96,0.13 31.41,11.97 5.32,11.55 -2.56,27.1 -8.52,38.58 q -0.68,1.31 0.65,0.67 1.25,-0.59 2.4,0.29 0.43,0.34 0.96,0.18 c 18.74,-5.83 25.07,7.27 14.24,21.42 q -7.31,9.54 -17.59,16.22 a 0.29,0.29 0 0 0 0.23,0.53 q 8.89,-2.25 18.05,-4.48 c 4.68,-1.14 17.7,-4.3 19.69,0.5 2.06,4.94 -7.7,10.66 -10.73,13.08 q -0.63,0.5 0.17,0.51 c 38.92,0.53 68.15,30.07 69.93,68.66 q 0.16,3.38 1.13,6.26 4.13,12.15 8.12,24.34 c 0.77,2.34 0.41,4.15 0.27,6.54 q -0.03,0.53 0.49,0.57 8.28,0.75 16.52,0.6 c 12,-0.23 15.08,-11.76 15.48,-21.61 q 0.02,-0.48 -0.43,-0.67 c -27.53,-11.5 -26.4,-44.86 -0.35,-57.58 1.12,-0.55 2.04,-0.42 3.26,-0.43 q 0.5,-0.01 0.51,-0.5 l 0.37,-15.48 q 0.01,-0.63 -0.62,-0.62 -8.3,0.1 -16.36,0.29 c -6.68,0.16 -10.55,-3.94 -14.07,-9.77 q -11.93,-19.68 -23.76,-39.43 c -3.05,-5.11 -1.99,-10.4 0.95,-15.79 q 11.48,-21.08 23.19,-42.04 c 2.4,-4.31 7.59,-6.22 12.77,-6.37 q 20.56,-0.58 41.13,-0.77 c 8.88,-0.08 14.91,-0.57 19.29,6.65 q 12.73,21.04 25.39,42.12 c 2.92,4.88 2.29,10.18 -0.53,15.38 q -9.67,17.82 -19.58,35.52 c -4.68,8.37 -6.78,13.1 -16.36,13.46 q -7.85,0.3 -15.69,0.38 -0.45,0.01 -0.43,0.46 l 0.86,15.51 q 0.03,0.49 0.47,0.69 c 12.24,5.45 21.75,15.47 21.99,29.57 0.23,12.88 -8.62,23.66 -19.97,28.75 a 1.18,1.2 79.9 0 0 -0.69,0.97 c -3.03,34.32 -20.04,45.51 -53.57,41.82 a 1.85,1.86 5.2 0 0 -2.05,1.71 q -3.16,43.08 -6.52,87.1 c -0.23,2.97 -1.09,5.54 -1.91,8.35 z m 67.25,-222.89 q 6.54,-0.06 13.08,-0.59 0.5,-0.05 0.87,-0.4 c 0.86,-0.83 1.87,-1.86 2.47,-2.93 q 12.21,-21.74 24.14,-43.65 c 0.56,-1.01 0.05,-3.87 -0.7,-5.14 q -12.52,-21.03 -25.39,-41.86 -2.05,-3.32 -6.47,-3.26 -22.24,0.33 -44.48,0.8 c -3.33,0.07 -6.95,-0.16 -8.73,3 q -11.7,20.87 -23.13,41.88 c -1.92,3.53 -2.21,5.14 -0.01,8.81 q 12.23,20.43 24.76,40.67 2.04,3.28 5.4,3.3 c 10.56,0.06 25.26,-0.52 38.19,-0.63 z M 563.52,127.55 c -8.95,25.28 -14.98,51.08 -43.42,61.4 a 0.2,0.21 56 0 0 -0.07,0.34 c 15.65,14.78 40,18.3 56.21,2.43 17.56,-17.21 30.39,-42.41 39.49,-64.98 3.44,-8.54 2.83,-18.68 -7.57,-21.39 -12.63,-3.3 -30.61,-0.39 -38.57,11.23 q -4.52,6.59 -6.07,10.97 z m 62.71,80.55 -1.95,-0.95 q -0.52,-0.25 -1.06,-0.06 -8.19,2.9 -15.41,7.73 a 0.22,0.22 0 0 0 0.04,0.39 c 8.85,3.3 21.09,6.12 30.35,3.26 6.63,-2.05 13.25,-5.06 18.42,-9.92 a 0.59,0.59 0 0 0 -0.34,-1.01 c -9.68,-1.08 -19.26,0.37 -28.96,0.79 q -0.57,0.03 -1.09,-0.23 z m 37.16,-0.2 c -1.37,5.7 -6.9,9.13 -12.01,11.88 q -0.91,0.5 0.13,0.43 c 8.09,-0.5 18.44,-1.83 26.35,-4.93 q 0.74,-0.29 0.07,-0.73 -6.59,-4.21 -13.89,-6.99 -0.52,-0.2 -0.65,0.34 z m -60.63,13.49 q -0.8,-0.35 -1.64,-0.68 -0.46,-0.18 -0.82,0.17 -17.96,17.56 -19.56,42.84 -0.03,0.53 0.5,0.53 h 123.51 a 0.49,0.49 0 0 0 0.49,-0.52 q -1.5,-25.14 -19.32,-42.61 -0.37,-0.37 -0.84,-0.16 c -23.13,9.81 -59.83,10.41 -82.32,0.43 z m 168.7,15.62 c 5.48,5.68 6.71,13.14 3.83,20.43 q -0.21,0.54 0.24,0.91 4.71,3.78 5.8,9.73 0.13,0.68 0.63,0.21 c 12.49,-11.54 8.06,-29.19 -6.2,-36.5 q -0.45,-0.23 -0.78,0.15 l -3.55,4.23 q -0.36,0.43 0.03,0.84 z m -20.49,31.55 c 1.25,-5.49 2.58,-6.54 5.5,-9.98 q 0.33,-0.4 0.13,-0.87 -4.91,-11.26 2.92,-20.46 0.45,-0.53 -0.02,-1.04 l -3.64,-4.03 q -0.38,-0.41 -0.86,-0.13 c -13.99,8.05 -17.43,25.31 -4.66,36.71 q 0.49,0.43 0.63,-0.2 z m 22.5,1.96 a 7.3,7.3 0 0 0 -7.3,-7.3 7.3,7.3 0 0 0 -7.3,7.3 7.3,7.3 0 0 0 7.3,7.3 7.3,7.3 0 0 0 7.3,-7.3 z m -67.04,1.86 a 0.36,0.36 0 0 0 -0.34,-0.25 l -126.16,0.01 a 0.36,0.36 0 0 0 -0.34,0.25 l -6.98,20.89 a 0.36,0.36 0 0 0 0.34,0.47 h 140.1 a 0.36,0.36 0 0 0 0.34,-0.47 z M 574.4,301.57 c -0.81,0.43 -1.77,0.05 -2.64,0.11 q -0.54,0.03 -0.5,0.57 3.96,53.85 8.09,107.68 c 0.84,10.97 6.33,15.06 17.18,15.06 q 46.47,0.01 92.96,0.02 c 16,0 16.65,-8.25 17.74,-22.5 q 3.82,-50.26 7.5,-100.55 a 0.32,0.32 0 0 0 -0.32,-0.35 l -139.54,-0.15 q -0.25,0 -0.47,0.11 z m -31.75,66.41 a 7.3,7.3 0 0 0 -7.3,-7.3 7.3,7.3 0 0 0 -7.3,7.3 7.3,7.3 0 0 0 7.3,7.3 7.3,7.3 0 0 0 7.3,-7.3 z M 521,406.41 c -4.62,-9 -3.11,-19.23 3.6,-26.45 a 0.74,0.75 45 0 0 0.01,-1.01 q -4.37,-4.72 -4.64,-11.18 a 0.37,0.37 0 0 0 -0.58,-0.28 c -14.84,10.82 -17.14,30.45 -4.77,44.3 a 0.68,0.68 0 0 0 0.96,0.06 l 5.25,-4.56 q 0.43,-0.37 0.17,-0.88 z m 29.15,-34.54 c -1.14,4.05 -3.17,6.47 -7.08,9.42 q -0.42,0.32 -0.19,0.79 7.07,14.35 -2.85,26.62 -0.33,0.42 -0.03,0.86 l 3.89,5.59 q 0.47,0.68 1.15,0.19 c 14.85,-10.69 17.6,-29.56 6.12,-43.67 q -0.7,-0.87 -1.01,0.2 z m -18.3,11.94 c -7.7,7.89 -6.56,13.83 -1.63,22.52 q 0.23,0.4 0.58,0.09 c 7.2,-6.41 9.98,-14.85 3.3,-22.54 a 1.54,1.53 46.7 0 0 -2.25,-0.07 z m 79.44,56.44 9.6,-6.67 q 0.69,-0.48 -0.14,-0.48 l -17.5,-0.06 -5.59,-0.12 q -0.58,-0.01 -0.81,0.52 l -10.35,24.28 a 0.18,0.18 0 0 0 0.27,0.21 z m 72.46,-7.21 -18.49,0.06 q -0.82,0 -0.15,0.47 l 9.39,6.64 24.56,17.58 q 0.68,0.5 0.35,-0.28 l -10.2,-24.07 q -0.25,-0.59 -0.88,-0.56 z"
       id="path739" />
    <path
       fill="#f32323"
       d="m 779.75,197.82 c -12.93,0.11 -27.63,0.69 -38.19,0.63 q -3.36,-0.02 -5.4,-3.3 -12.53,-20.24 -24.76,-40.67 c -2.2,-3.67 -1.91,-5.28 0.01,-8.81 q 11.43,-21.01 23.13,-41.88 c 1.78,-3.16 5.4,-2.93 8.73,-3 q 22.24,-0.47 44.48,-0.8 4.42,-0.06 6.47,3.26 12.87,20.83 25.39,41.86 c 0.75,1.27 1.26,4.13 0.7,5.14 q -11.93,21.91 -24.14,43.65 c -0.6,1.07 -1.61,2.1 -2.47,2.93 q -0.37,0.35 -0.87,0.4 -6.54,0.53 -13.08,0.59 z m -7.5,-62.28 c -5.86,-5.27 -14.84,-1.98 -17.48,5.23 -2.75,7.51 -2.09,22.48 8.16,24.39 15.71,2.93 17.27,-22.46 9.32,-29.62 z M 747,151.45 v -17.32 q 0,-0.63 -0.63,-0.63 h -7.82 q -0.54,0 -0.82,0.46 -5.1,8.38 -10.35,16.7 -1.75,2.77 -1,6.09 0.12,0.51 0.64,0.5 H 739 q 1,0 1,1 v 5.87 q 0,0.63 0.62,0.63 h 5.63 q 0.75,0 0.75,-0.75 v -5.8 q 0,-0.44 0.39,-0.66 1.17,-0.62 2.29,-0.08 a 0.75,0.75 0 0 0 1.07,-0.68 v -4.47 q 0,-0.7 -0.69,-0.6 l -2.35,0.35 Q 747,152.17 747,151.45 Z m 45.94,5.8 a 0.56,0.56 0 0 1 0.56,0.56 v 6.55 a 0.56,0.56 0 0 0 0.58,0.56 l 5.63,-0.16 a 0.56,0.56 0 0 0 0.54,-0.56 v -6.39 a 0.56,0.56 0 0 1 0.56,-0.56 h 2.88 a 0.56,0.56 0 0 0 0.56,-0.56 v -4.21 a 0.56,0.56 0 0 0 -0.58,-0.56 l -2.85,0.1 a 0.56,0.56 0 0 1 -0.58,-0.56 l 0.04,-17.4 a 0.56,0.56 0 0 0 -0.56,-0.56 h -7.94 a 0.56,0.56 0 0 0 -0.47,0.27 l -11.48,18.53 a 0.56,0.56 0 0 0 -0.08,0.3 v 4.09 a 0.56,0.56 0 0 0 0.56,0.56 z"
       id="path741" />
    <path
       fill="#f3d551"
       d="m 520.1,188.95 c 28.44,-10.32 34.47,-36.12 43.42,-61.4 q 1.55,-4.38 6.07,-10.97 c 7.96,-11.62 25.94,-14.53 38.57,-11.23 10.4,2.71 11.01,12.85 7.57,21.39 -9.1,22.57 -21.93,47.77 -39.49,64.98 -16.21,15.87 -40.56,12.35 -56.21,-2.43 a 0.2,0.21 56 0 1 0.07,-0.34 z m 36.41,-25.6 c 4.82,-5.08 41.02,-43.42 34.47,-49.94 q -1.08,-1.07 -2.77,-0.94 c -22.4,1.75 -20.15,24.8 -27.55,41.68 q -1.99,4.57 -4.44,9 a 0.18,0.18 0 0 0 0.29,0.2 z"
       id="path743" />
    <path
       fill="#ffffff"
       d="m 590.98,113.41 c 6.55,6.52 -29.65,44.86 -34.47,49.94 a 0.18,0.18 0 0 1 -0.29,-0.2 q 2.45,-4.43 4.44,-9 c 7.4,-16.88 5.15,-39.93 27.55,-41.68 q 1.69,-0.13 2.77,0.94 z"
       id="path745" />
    <path
       fill="#ffffff"
       d="m 754.77,140.77 c 2.64,-7.21 11.62,-10.5 17.48,-5.23 7.95,7.16 6.39,32.55 -9.32,29.62 -10.25,-1.91 -10.91,-16.88 -8.16,-24.39 z m 10.3612,19.21 a 4.49,10.75 0.1 0 0 4.5088,-10.7422 4.49,10.75 0.1 0 0 -4.4712,-10.7578 4.49,10.75 0.1 0 0 -4.5088,10.7422 4.49,10.75 0.1 0 0 4.4712,10.7578 z"
       id="path747" />
    <path
       fill="#ffffff"
       d="m 747.71,152.06 2.35,-0.35 q 0.69,-0.1 0.69,0.6 v 4.47 a 0.75,0.75 0 0 1 -1.07,0.68 q -1.12,-0.54 -2.29,0.08 -0.39,0.22 -0.39,0.66 v 5.8 q 0,0.75 -0.75,0.75 h -5.63 q -0.62,0 -0.62,-0.63 v -5.87 q 0,-1 -1,-1 h -11.98 q -0.52,0.01 -0.64,-0.5 -0.75,-3.32 1,-6.09 5.25,-8.32 10.35,-16.7 0.28,-0.46 0.82,-0.46 h 7.82 q 0.63,0 0.63,0.63 v 17.32 q 0,0.72 0.71,0.61 z m -7.78,-0.64 0.24,-11.13 q 0.02,-0.83 -0.39,-0.1 l -6.24,11.18 q -0.29,0.51 0.3,0.52 l 5.49,0.1 q 0.59,0.01 0.6,-0.57 z"
       id="path749" />
    <path
       fill="#ffffff"
       d="m 792.94,157.25 h -12.63 a 0.56,0.56 0 0 1 -0.56,-0.56 v -4.09 a 0.56,0.56 0 0 1 0.08,-0.3 l 11.48,-18.53 a 0.56,0.56 0 0 1 0.47,-0.27 h 7.94 a 0.56,0.56 0 0 1 0.56,0.56 l -0.04,17.4 a 0.56,0.56 0 0 0 0.58,0.56 l 2.85,-0.1 a 0.56,0.56 0 0 1 0.58,0.56 v 4.21 a 0.56,0.56 0 0 1 -0.56,0.56 h -2.88 a 0.56,0.56 0 0 0 -0.56,0.56 v 6.39 a 0.56,0.56 0 0 1 -0.54,0.56 l -5.63,0.16 a 0.56,0.56 0 0 1 -0.58,-0.56 v -6.55 a 0.56,0.56 0 0 0 -0.56,-0.56 z m 0.42,-5.9 0.12,-11.01 q 0,-0.57 -0.27,-0.07 l -6.27,11.12 a 0.35,0.35 0 0 0 0.31,0.52 l 5.72,-0.16 q 0.39,-0.01 0.39,-0.4 z"
       id="path751" />
    <ellipse
       fill="#f32323"
       cx="147.89433"
       cy="-765.4093"
       transform="rotate(90.1)"
       rx="10.75"
       ry="4.4899998"
       id="ellipse753" />
    <path
       fill="#f32323"
       d="m 740.17,140.29 -0.24,11.13 q -0.01,0.58 -0.6,0.57 l -5.49,-0.1 q -0.59,-0.01 -0.3,-0.52 l 6.24,-11.18 q 0.41,-0.73 0.39,0.1 z"
       id="path755" />
    <path
       fill="#f32323"
       d="m 793.48,140.34 -0.12,11.01 q 0,0.39 -0.39,0.4 l -5.72,0.16 a 0.35,0.35 0 0 1 -0.31,-0.52 l 6.27,-11.12 q 0.27,-0.5 0.27,0.07 z"
       id="path757" />
    <path
       fill="#052361"
       d="m 683.48,180.96 4.71,3.28 q 0.63,0.44 0.06,0.94 l -12.5,11.04 q -1.08,0.96 -0.33,-0.27 l 5.44,-8.85 q 0.38,-0.62 -0.19,-1.06 l -7.57,-5.79 a 0.48,0.48 0 0 1 0.04,-0.79 l 23.1,-14.24 a 0.19,0.19 0 0 1 0.24,0.28 l -13.11,14.56 q -0.46,0.51 0.11,0.9 z"
       id="path759" />
    <path
       fill="#052361"
       d="m 323.52,257.75 c 0.31,45.3 -15.5,96.34 -72,93.24 -32.09,-1.76 -50.47,-26.96 -57.1,-56.08 -11.05,-48.46 -0.64,-130.19 67.91,-125.93 47.45,2.95 60.91,49.14 61.19,88.77 z m -70.33,-72.14 6.42,-6.11 a 0.18,0.18 0 0 0 0,-0.26 l -0.02,-0.02 a 3.85,4.45 46.4 0 0 -5.87,0.28 l -0.24,0.22 a 3.85,4.45 46.4 0 0 -0.56,5.86 l 0.02,0.02 a 0.18,0.18 0 0 0 0.25,0.01 z m 7.6,-4.78 -6.43,6.01 a 0.19,0.19 0 0 0 -0.01,0.27 l 0.07,0.06 a 3.74,4.48 46.9 0 0 5.82,-0.33 l 0.16,-0.15 a 3.74,4.48 46.9 0 0 0.72,-5.79 l -0.06,-0.07 a 0.19,0.19 0 0 0 -0.27,0 z m -48.48,14.61 q 6.53,-1.57 5.19,-8.6 -0.08,-0.4 -0.37,-0.11 -5.16,5.17 -9.13,11.29 -0.26,0.4 0.15,0.64 c 0.85,0.51 2.68,-2.05 3.2,-2.64 q 0.39,-0.44 0.96,-0.58 z m 69.88,59.82 c -0.18,-14.55 -1.95,-45.93 -17.49,-53.43 -8.43,-4.07 -17.71,-0.46 -22.62,7.31 -11,17.4 -10.09,42.48 -9.65,62.16 0.32,14.33 3.79,45.69 22.47,48.32 27.51,3.88 27.48,-48.97 27.29,-64.36 z m 31.83,26.25 c -2.45,4.86 -7.55,11.67 -3.58,16.63 q 0.34,0.43 0.35,0.98 l 0.08,12.9 a 0.2,0.2 0 0 0 0.38,0.07 q 8.43,-21.04 9.16,-44 c 0.24,-7.85 -10.89,-6.91 -7.49,2.6 1.11,3.1 2.7,7.65 1.1,10.82 z m -60.86,56.74 6.49,-6.2 a 0.19,0.19 0 0 0 0.01,-0.27 l -0.07,-0.07 a 3.75,4.54 46.3 0 0 -5.87,0.42 l -0.21,0.2 a 3.75,4.54 46.3 0 0 -0.69,5.84 l 0.07,0.08 a 0.19,0.19 0 0 0 0.27,0 z m 7.69,-5.01 -6.46,6.24 a 0.19,0.19 0 0 0 0,0.27 l 0.07,0.08 a 3.7,4.52 46 0 0 5.82,-0.48 l 0.23,-0.22 a 3.7,4.52 46 0 0 0.69,-5.8 l -0.08,-0.08 a 0.19,0.19 0 0 0 -0.27,-0.01 z"
       id="path761" />
    <path
       fill="#052361"
       d="m 175.76,275.58 -0.01,30.34 a 0.33,0.33 0 0 1 -0.33,0.33 h -20.34 a 0.33,0.33 0 0 0 -0.33,0.33 v 41.34 a 0.33,0.33 0 0 1 -0.33,0.33 h -38.59 a 0.33,0.33 0 0 1 -0.33,-0.33 v -41.34 a 0.33,0.33 0 0 0 -0.33,-0.33 H 37.8 a 0.33,0.33 0 0 1 -0.33,-0.33 l 0.04,-26.85 a 0.33,0.33 0 0 1 0.05,-0.17 l 66.5,-106.99 a 0.33,0.33 0 0 1 0.28,-0.16 h 50.08 a 0.33,0.33 0 0 1 0.33,0.33 v 102.84 a 0.33,0.33 0 0 0 0.33,0.33 h 20.35 a 0.33,0.33 0 0 1 0.33,0.33 z m -45.55,-89.98 6.58,-6.15 a 0.17,0.17 0 0 0 0,-0.24 l -0.04,-0.05 a 3.75,4.55 46.9 0 0 -5.88,0.37 l -0.18,0.17 a 3.75,4.55 46.9 0 0 -0.76,5.85 l 0.04,0.04 a 0.17,0.17 0 0 0 0.24,0.01 z m 7.82,-4.93 -6.51,6.18 a 0.19,0.19 0 0 0 -0.01,0.27 l 0.04,0.04 a 3.83,4.57 46.5 0 0 5.95,-0.36 l 0.16,-0.16 a 3.83,4.57 46.5 0 0 0.68,-5.92 l -0.04,-0.04 a 0.19,0.19 0 0 0 -0.27,-0.01 z m 8.97,30.54 c 6.17,4.79 -2.16,13.31 5.13,20.68 q 0.37,0.37 0.37,-0.15 V 201 q 0,-2.77 -0.63,-0.07 -1.25,5.39 -4.93,9.51 -0.38,0.42 0.06,0.77 z m -70.45,63.85 38.5,0.11 q 0.49,0 0.48,-0.5 c -0.15,-7.9 0.11,-16.14 0.06,-23.66 q -0.19,-23.78 1.22,-47.6 a 0.48,0.48 0 0 0 -0.92,-0.23 q -6.4,13.91 -13.47,27.44 c -7.71,14.75 -17.39,29.36 -26.19,43.86 q -0.35,0.58 0.32,0.58 z m 16.73,25.85 c -1.47,-0.44 -2.03,-1.16 -2.81,-2.38 q -0.25,-0.38 -0.7,-0.35 -10.13,0.79 -19.32,5.07 a 0.3,0.3 0 0 0 0.12,0.57 l 31.22,0.04 q 0.42,0 0.02,-0.14 -4.31,-1.56 -8.53,-2.81 z m 37.01,37.31 6.5,-6.17 a 0.19,0.19 0 0 0 0.01,-0.27 l -0.08,-0.08 a 3.79,4.55 46.5 0 0 -5.91,0.38 l -0.18,0.17 a 3.79,4.55 46.5 0 0 -0.69,5.88 l 0.08,0.08 a 0.19,0.19 0 0 0 0.27,0.01 z m 7.65,-4.92 -6.34,6.1 a 0.19,0.19 0 0 0 0,0.27 l 0.07,0.07 a 3.77,4.48 46.1 0 0 5.84,-0.39 l 0.16,-0.15 a 3.77,4.48 46.1 0 0 0.61,-5.83 l -0.07,-0.07 a 0.19,0.19 0 0 0 -0.27,0 z"
       id="path763" />
    <path
       fill="#052361"
       d="m 416.32,306.25 h -77.14 a 0.43,0.43 0 0 1 -0.43,-0.43 v -26.65 a 0.43,0.43 0 0 1 0.06,-0.22 l 66.45,-107 a 0.43,0.43 0 0 1 0.37,-0.2 h 49.94 a 0.43,0.43 0 0 1 0.43,0.43 v 102.67 a 0.43,0.43 0 0 0 0.43,0.43 l 20.39,-0.09 a 0.43,0.43 0 0 1 0.43,0.43 v 30.2 a 0.43,0.43 0 0 1 -0.43,0.43 h -20.39 a 0.43,0.43 0 0 0 -0.43,0.43 v 41.14 a 0.43,0.43 0 0 1 -0.43,0.43 h -38.39 a 0.43,0.43 0 0 1 -0.43,-0.43 v -41.14 a 0.43,0.43 0 0 0 -0.43,-0.43 z m 16.34,-120.7 6.68,-6 a 0.19,0.19 0 0 0 0.02,-0.27 l -0.07,-0.07 a 3.87,4.57 48.1 0 0 -5.99,0.17 l -0.16,0.15 a 3.87,4.57 48.1 0 0 -0.82,5.93 l 0.07,0.07 a 0.19,0.19 0 0 0 0.27,0.02 z m 7.69,-4.82 -6.37,6.1 a 0.19,0.19 0 0 0 -0.01,0.27 l 0.08,0.08 a 3.73,4.47 46.3 0 0 5.81,-0.39 l 0.19,-0.18 a 3.73,4.47 46.3 0 0 0.65,-5.78 l -0.08,-0.09 a 0.19,0.19 0 0 0 -0.27,-0.01 z m -62.58,94.31 h 38.42 q 0.72,0 0.7,-0.72 -0.78,-35.45 1.12,-70.85 a 0.44,0.44 0 0 0 -0.84,-0.21 c -6.74,14.18 -13.4,28.14 -21.68,41.72 q -9,14.76 -18.04,29.5 -0.34,0.56 0.32,0.56 z m 69.67,-18.34 c 1.53,3.85 2.4,6.28 0.3,10.69 q -0.23,0.47 -0.03,0.96 1.46,3.62 5.11,5.15 0.43,0.18 0.43,-0.28 v -20.67 a 0.55,0.55 0 0 0 -0.75,-0.51 q -3.04,1.17 -4.94,3.75 -0.31,0.42 -0.12,0.91 z m -92.97,40.01 c -5.76,0.95 -10.19,-2.75 -12.35,-7.85 q -0.62,-1.46 -0.62,0.13 v 13.76 q 0,0.5 0.5,0.5 h 29.98 q 0.45,0 0.38,-0.44 c -0.48,-2.79 -5.94,-4.84 -8.33,-6.54 -2.62,-1.87 -6.74,-0.03 -9.56,0.44 z m 78.33,41.49 6.34,-6.1 a 0.19,0.19 0 0 0 0,-0.27 l -0.07,-0.08 a 3.76,4.48 46.1 0 0 -5.84,0.4 l -0.16,0.15 a 3.76,4.48 46.1 0 0 -0.62,5.82 l 0.08,0.08 a 0.19,0.19 0 0 0 0.27,0 z m 7.62,-4.91 -6.61,6.1 a 0.19,0.19 0 0 0 -0.01,0.27 l 0.07,0.08 a 3.76,4.55 47.3 0 0 5.89,-0.32 l 0.21,-0.19 a 3.76,4.55 47.3 0 0 0.79,-5.85 l -0.07,-0.08 a 0.19,0.19 0 0 0 -0.27,-0.01 z"
       id="path765" />
    <path
       fill="#ffffff"
       d="m 130.21,185.6 a 0.17,0.17 0 0 1 -0.24,-0.01 l -0.04,-0.04 a 3.75,4.55 46.9 0 1 0.76,-5.85 l 0.18,-0.17 a 3.75,4.55 46.9 0 1 5.88,-0.37 l 0.04,0.05 a 0.17,0.17 0 0 1 0,0.24 z"
       id="path767" />
    <path
       fill="#ffffff"
       d="m 253.19,185.61 a 0.18,0.18 0 0 1 -0.25,-0.01 l -0.02,-0.02 a 3.85,4.45 46.4 0 1 0.56,-5.86 l 0.24,-0.22 a 3.85,4.45 46.4 0 1 5.87,-0.28 l 0.02,0.02 a 0.18,0.18 0 0 1 0,0.26 z"
       id="path769" />
    <path
       fill="#ffffff"
       d="m 432.66,185.55 a 0.19,0.19 0 0 1 -0.27,-0.02 l -0.07,-0.07 a 3.87,4.57 48.1 0 1 0.82,-5.93 l 0.16,-0.15 a 3.87,4.57 48.1 0 1 5.99,-0.17 l 0.07,0.07 a 0.19,0.19 0 0 1 -0.02,0.27 z"
       id="path771" />
    <path
       fill="#ffffff"
       d="m 138.03,180.67 a 0.19,0.19 0 0 1 0.27,0.01 l 0.04,0.04 a 3.83,4.57 46.5 0 1 -0.68,5.92 l -0.16,0.16 a 3.83,4.57 46.5 0 1 -5.95,0.36 l -0.04,-0.04 a 0.19,0.19 0 0 1 0.01,-0.27 z"
       id="path773" />
    <path
       fill="#ffffff"
       d="m 260.79,180.83 a 0.19,0.19 0 0 1 0.27,0 l 0.06,0.07 a 3.74,4.48 46.9 0 1 -0.72,5.79 l -0.16,0.15 a 3.74,4.48 46.9 0 1 -5.82,0.33 l -0.07,-0.06 a 0.19,0.19 0 0 1 0.01,-0.27 z"
       id="path775" />
    <path
       fill="#ffffff"
       d="m 440.35,180.73 a 0.19,0.19 0 0 1 0.27,0.01 l 0.08,0.09 a 3.73,4.47 46.3 0 1 -0.65,5.78 l -0.19,0.18 a 3.73,4.47 46.3 0 1 -5.81,0.39 l -0.08,-0.08 a 0.19,0.19 0 0 1 0.01,-0.27 z"
       id="path777" />
    <path
       fill="#ffffff"
       d="m 211.35,196.02 c -0.52,0.59 -2.35,3.15 -3.2,2.64 q -0.41,-0.24 -0.15,-0.64 3.97,-6.12 9.13,-11.29 0.29,-0.29 0.37,0.11 1.34,7.03 -5.19,8.6 -0.57,0.14 -0.96,0.58 z"
       id="path779" />
    <path
       fill="#ffffff"
       d="M 152.13,231.89 C 144.84,224.52 153.17,216 147,211.21 q -0.44,-0.35 -0.06,-0.77 3.68,-4.12 4.93,-9.51 0.63,-2.7 0.63,0.07 v 30.74 q 0,0.52 -0.37,0.15 z"
       id="path783" />
    <path
       fill="#969696"
       d="m 627.32,208.33 c 9.7,-0.42 19.28,-1.87 28.96,-0.79 a 0.59,0.59 0 0 1 0.34,1.01 c -5.17,4.86 -11.79,7.87 -18.42,9.92 -9.26,2.86 -21.5,0.04 -30.35,-3.26 a 0.22,0.22 0 0 1 -0.04,-0.39 q 7.22,-4.83 15.41,-7.73 0.54,-0.19 1.06,0.06 l 1.95,0.95 q 0.52,0.26 1.09,0.23 z"
       id="path789" />
    <path
       fill="#969696"
       d="m 651.38,219.78 c 5.11,-2.75 10.64,-6.18 12.01,-11.88 q 0.13,-0.54 0.65,-0.34 7.3,2.78 13.89,6.99 0.67,0.44 -0.07,0.73 c -7.91,3.1 -18.26,4.43 -26.35,4.93 q -1.04,0.07 -0.13,-0.43 z"
       id="path791" />
    <path
       fill="#ffffff"
       d="m 602.76,221.39 c 22.49,9.98 59.19,9.38 82.32,-0.43 q 0.47,-0.21 0.84,0.16 17.82,17.47 19.32,42.61 a 0.49,0.49 0 0 1 -0.49,0.52 H 581.24 q -0.53,0 -0.5,-0.53 1.6,-25.28 19.56,-42.84 0.36,-0.35 0.82,-0.17 0.84,0.33 1.64,0.68 z m 23.55,31.23 3.55,-3.73 q 0.39,-0.4 0.44,-0.96 c 0.21,-2.62 -2.44,-4.8 -4.75,-3.1 q -1.35,0.99 -3.41,3.47 -0.37,0.45 -0.82,0.08 c -2.19,-1.82 -3.84,-5.28 -7.25,-3.57 -3.76,1.88 1.21,6.43 2.83,7.68 a 0.66,0.65 45.2 0 1 0,1.03 c -1.75,1.36 -5.65,4.47 -3.47,7.04 2.51,2.96 5.62,-0.41 7.59,-2.97 q 0.37,-0.48 0.81,-0.05 l 3.59,3.46 a 2.61,2.62 50 0 0 3.3,0.28 c 3.98,-2.72 -0.53,-5.95 -2.4,-7.84 q -0.4,-0.41 -0.01,-0.82 z m 38.42,5.07 3.99,3.67 a 2.24,2.25 47.5 0 0 2.89,0.12 c 3.92,-3.05 -0.2,-6.01 -2.4,-7.96 q -0.41,-0.36 -0.08,-0.79 c 1.03,-1.32 3.81,-3.53 4.08,-5.02 0.28,-1.59 -1.08,-3.21 -2.66,-3.43 -1.85,-0.27 -4.64,2.8 -5.76,4.11 q -0.35,0.42 -0.73,0.03 c -1.66,-1.69 -4.13,-5.39 -6.82,-3.7 -4.23,2.66 1.15,6.2 2.59,8.11 q 0.32,0.42 -0.09,0.74 c -1.99,1.53 -5.89,4.68 -2.86,7.31 2.52,2.2 5.1,-0.95 7.03,-3.15 q 0.39,-0.44 0.82,-0.04 z"
       id="path793" />
    <path
       fill="#37a2aa"
       d="m 775.29,257.44 c 2.88,-7.29 1.65,-14.75 -3.83,-20.43 q -0.39,-0.41 -0.03,-0.84 l 3.55,-4.23 q 0.33,-0.38 0.78,-0.15 c 14.26,7.31 18.69,24.96 6.2,36.5 q -0.5,0.47 -0.63,-0.21 -1.09,-5.95 -5.8,-9.73 -0.45,-0.37 -0.24,-0.91 z"
       id="path795" />
    <path
       fill="#37a2aa"
       d="m 756.47,258.58 c -2.92,3.44 -4.25,4.49 -5.5,9.98 q -0.14,0.63 -0.63,0.2 c -12.77,-11.4 -9.33,-28.66 4.66,-36.71 q 0.48,-0.28 0.86,0.13 l 3.64,4.03 q 0.47,0.51 0.02,1.04 -7.83,9.2 -2.92,20.46 0.2,0.47 -0.13,0.87 z"
       id="path797" />
    <path
       fill="#052361"
       d="m 626.32,253.44 c 1.87,1.89 6.38,5.12 2.4,7.84 a 2.61,2.62 50 0 1 -3.3,-0.28 l -3.59,-3.46 q -0.44,-0.43 -0.81,0.05 c -1.97,2.56 -5.08,5.93 -7.59,2.97 -2.18,-2.57 1.72,-5.68 3.47,-7.04 a 0.66,0.65 45.2 0 0 0,-1.03 c -1.62,-1.25 -6.59,-5.8 -2.83,-7.68 3.41,-1.71 5.06,1.75 7.25,3.57 q 0.45,0.37 0.82,-0.08 2.06,-2.48 3.41,-3.47 c 2.31,-1.7 4.96,0.48 4.75,3.1 q -0.05,0.56 -0.44,0.96 l -3.55,3.73 q -0.39,0.41 0.01,0.82 z"
       id="path799" />
    <path
       fill="#052361"
       d="m 663.91,257.73 c -1.93,2.2 -4.51,5.35 -7.03,3.15 -3.03,-2.63 0.87,-5.78 2.86,-7.31 q 0.41,-0.32 0.09,-0.74 c -1.44,-1.91 -6.82,-5.45 -2.59,-8.11 2.69,-1.69 5.16,2.01 6.82,3.7 q 0.38,0.39 0.73,-0.03 c 1.12,-1.31 3.91,-4.38 5.76,-4.11 1.58,0.22 2.94,1.84 2.66,3.43 -0.27,1.49 -3.05,3.7 -4.08,5.02 q -0.33,0.43 0.08,0.79 c 2.2,1.95 6.32,4.91 2.4,7.96 a 2.24,2.25 47.5 0 1 -2.89,-0.12 l -3.99,-3.67 q -0.43,-0.4 -0.82,0.04 z"
       id="path801" />
    <path
       fill="#ffffff"
       d="m 447.74,267.39 c 2.1,-4.41 1.23,-6.84 -0.3,-10.69 q -0.19,-0.49 0.12,-0.91 1.9,-2.58 4.94,-3.75 a 0.55,0.55 0 0 1 0.75,0.51 v 20.67 q 0,0.46 -0.43,0.28 -3.65,-1.53 -5.11,-5.15 -0.2,-0.49 0.03,-0.96 z"
       id="path803" />
    <path
       fill="#052361"
       d="m 535.69,270.52 2.62,-5.77 a 0.42,0.42 0 0 1 0.64,-0.16 l 13.22,10.57 q 1.25,1 -0.23,0.39 l -9.74,-3.99 a 0.67,0.66 25.1 0 0 -0.85,0.3 l -4.55,8.76 q -0.24,0.46 -0.58,0.08 l -18,-20.13 q -1.07,-1.19 0.29,-0.34 l 16.71,10.43 q 0.32,0.2 0.47,-0.14 z"
       id="path805" />
    <path
       fill="#ffffff"
       d="m 314.02,281.51 c 1.6,-3.17 0.01,-7.72 -1.1,-10.82 -3.4,-9.51 7.73,-10.45 7.49,-2.6 q -0.73,22.96 -9.16,44 a 0.2,0.2 0 0 1 -0.38,-0.07 l -0.08,-12.9 q -0.01,-0.55 -0.35,-0.98 c -3.97,-4.96 1.13,-11.77 3.58,-16.63 z"
       id="path807" />
    <circle
       fill="#ffffff"
       cx="766.16998"
       cy="270.51999"
       r="7.3000002"
       id="circle809" />
    <path
       fill="#37a2aa"
       d="m 706.43,272.38 6.96,20.9 a 0.36,0.36 0 0 1 -0.34,0.47 h -140.1 a 0.36,0.36 0 0 1 -0.34,-0.47 l 6.98,-20.89 a 0.36,0.36 0 0 1 0.34,-0.25 l 126.16,-0.01 a 0.36,0.36 0 0 1 0.34,0.25 z m -42.68,9.79 a 2.92,2.92 0 0 0 -2.92,-2.92 h -35.66 a 2.92,2.92 0 0 0 -2.92,2.92 v 0.16 a 2.92,2.92 0 0 0 2.92,2.92 h 35.66 a 2.92,2.92 0 0 0 2.92,-2.92 z"
       id="path811" />
    <rect
       fill="#052361"
       x="622.25"
       y="279.25"
       width="41.5"
       height="6"
       rx="2.9200001"
       id="rect813" />
    <path
       fill="#ffffff"
       d="m 354.47,296.71 c 2.82,-0.47 6.94,-2.31 9.56,-0.44 2.39,1.7 7.85,3.75 8.33,6.54 q 0.07,0.44 -0.38,0.44 H 342 q -0.5,0 -0.5,-0.5 v -13.76 q 0,-1.59 0.62,-0.13 c 2.16,5.1 6.59,8.8 12.35,7.85 z"
       id="path815" />
    <path
       fill="#ffffff"
       d="m 90.47,298.53 c 0.78,1.22 1.34,1.94 2.81,2.38 q 4.22,1.25 8.53,2.81 0.4,0.14 -0.02,0.14 l -31.22,-0.04 a 0.3,0.3 0 0 1 -0.12,-0.57 q 9.19,-4.28 19.32,-5.07 0.45,-0.03 0.7,0.35 z"
       id="path817" />
    <path
       fill="#37a2aa"
       d="m 571.76,301.68 c 0.87,-0.06 1.83,0.32 2.64,-0.11 q 0.22,-0.11 0.47,-0.11 l 139.54,0.15 a 0.32,0.32 0 0 1 0.32,0.35 q -3.68,50.29 -7.5,100.55 c -1.09,14.25 -1.74,22.5 -17.74,22.5 Q 643,425 596.53,424.99 c -10.85,0 -16.34,-4.09 -17.18,-15.06 q -4.13,-53.83 -8.09,-107.68 -0.04,-0.54 0.5,-0.57 z m 7.55,13.28 6.48,-6.19 a 0.19,0.19 0 0 0 0,-0.27 l -0.08,-0.09 a 3.79,4.55 46.3 0 0 -5.91,0.41 l -0.17,0.16 a 3.79,4.55 46.3 0 0 -0.67,5.88 l 0.08,0.09 a 0.19,0.19 0 0 0 0.27,0.01 z m 119.69,-0.03 6.52,-6.19 a 0.19,0.19 0 0 0 0,-0.26 l -0.07,-0.08 a 3.74,4.54 46.5 0 0 -5.87,0.41 l -0.2,0.19 a 3.74,4.54 46.5 0 0 -0.72,5.84 l 0.07,0.08 a 0.19,0.19 0 0 0 0.27,0.01 z m -112.17,-5.03 -6.36,6.1 a 0.19,0.19 0 0 0 -0.01,0.27 l 0.09,0.09 a 3.79,4.49 46.2 0 0 5.86,-0.37 l 0.16,-0.16 a 3.79,4.49 46.2 0 0 0.62,-5.84 l -0.09,-0.09 a 0.19,0.19 0 0 0 -0.27,0 z m 119.65,-0.03 -6.21,6.24 a 0.19,0.19 0 0 0 0,0.27 l 0.07,0.07 a 3.79,4.49 44.9 0 0 5.85,-0.51 l 0.15,-0.14 a 3.79,4.49 44.9 0 0 0.48,-5.86 l -0.07,-0.07 a 0.19,0.19 0 0 0 -0.27,0 z M 600.29,370 q -0.55,13.29 -0.23,26.6 c 0.09,3.7 0.61,5.62 4.69,5.63 q 18.87,0.06 37.75,-0.02 h 22.25 q 7.96,0.06 15.91,0.05 c 3.22,-0.01 5.21,-0.78 5.29,-4.26 q 0.2,-8.98 -0.2,-15.46 0.48,-13.45 0.2,-26.95 c -0.08,-3.73 -0.7,-5.32 -4.71,-5.33 q -13.03,-0.01 -26.07,-0.01 -0.09,0 -0.11,-0.08 -0.04,-0.12 -0.09,-0.25 -0.05,-0.16 0.11,-0.19 8.42,-1.6 16.99,-1.64 c 4.31,-0.02 6.88,-4.35 2.64,-7.01 q -4.94,-3.1 -10.4,-5.15 a 0.35,0.34 55.3 0 1 0.12,-0.67 q 3.87,0.04 7.63,-0.42 c 4.31,-0.53 6.04,-4.4 2.15,-7.09 q -3.79,-2.61 -7.43,-5.62 -0.56,-0.46 0.16,-0.53 6.65,-0.63 11.99,3.1 c 1.88,1.32 3.53,1.78 4.95,-0.3 4.6,-6.72 -23.92,-14.38 -24.1,-3.4 -0.05,3.15 2.93,5.84 5.43,7.67 q 0.58,0.44 -0.14,0.51 c -2.83,0.28 -8.34,0.17 -10.55,1.96 -6,4.85 5.77,9.67 8.71,10.73 a 0.28,0.28 0 0 1 -0.07,0.54 c -6.39,0.44 -16.16,2.28 -20.57,7.42 q -0.33,0.39 -0.84,0.39 -18.06,0.08 -36.13,0.03 c -3.42,-0.01 -5.44,0.42 -5.52,4.25 q -0.21,10.16 0.19,15.5 z"
       id="path819" />
    <path
       fill="#052361"
       d="m 579.31,314.96 a 0.19,0.19 0 0 1 -0.27,-0.01 l -0.08,-0.09 a 3.79,4.55 46.3 0 1 0.67,-5.88 l 0.17,-0.16 a 3.79,4.55 46.3 0 1 5.91,-0.41 l 0.08,0.09 a 0.19,0.19 0 0 1 0,0.27 z"
       id="path821" />
    <path
       fill="#052361"
       d="m 699,314.93 a 0.19,0.19 0 0 1 -0.27,-0.01 l -0.07,-0.08 a 3.74,4.54 46.5 0 1 0.72,-5.84 l 0.2,-0.19 a 3.74,4.54 46.5 0 1 5.87,-0.41 l 0.07,0.08 a 0.19,0.19 0 0 1 0,0.26 z"
       id="path823" />
    <path
       fill="#052361"
       d="m 586.83,309.9 a 0.19,0.19 0 0 1 0.27,0 l 0.09,0.09 a 3.79,4.49 46.2 0 1 -0.62,5.84 l -0.16,0.16 a 3.79,4.49 46.2 0 1 -5.86,0.37 l -0.09,-0.09 a 0.19,0.19 0 0 1 0.01,-0.27 z"
       id="path825" />
    <path
       fill="#052361"
       d="m 706.48,309.87 a 0.19,0.19 0 0 1 0.27,0 l 0.07,0.07 a 3.79,4.49 44.9 0 1 -0.48,5.86 l -0.15,0.14 a 3.79,4.49 44.9 0 1 -5.85,0.51 l -0.07,-0.07 a 0.19,0.19 0 0 1 0,-0.27 z"
       id="path827" />
    <path
       fill="#052361"
       d="m 685.75,382.54 -3.97,-1.76 q -0.53,-0.24 -0.53,-0.82 V 378 q 0,-0.5 -0.5,-0.5 h -5.8 q -0.61,0 -0.56,0.61 l 0.15,1.8 q 0.04,0.57 -0.48,0.78 l -3.52,1.47 q -0.54,0.22 -0.94,-0.19 l -1.43,-1.42 q -0.32,-0.33 -0.65,0 l -4.24,4.32 q -0.47,0.48 0.05,0.9 l 1.37,1.08 q 0.47,0.36 0.24,0.91 l -1.49,3.57 q -0.22,0.53 -0.79,0.43 l -1.72,-0.33 q -0.7,-0.13 -0.69,0.58 l 0.08,5.91 q 0.01,0.58 0.59,0.58 h 1.85 q 0.59,0 0.8,0.56 l 1.18,3.15 H 642.5 l 1.89,-2.9 a 0.65,0.64 31.5 0 0 -0.22,-0.91 l -3.45,-2.04 q -0.5,-0.3 -0.4,-0.88 l 1.16,-6.75 q 0.08,-0.48 0.56,-0.58 l 3.79,-0.78 q 0.62,-0.13 0.47,-0.74 l -2.47,-10.12 q -0.16,-0.64 -0.79,-0.46 l -3.65,1.05 q -0.52,0.15 -0.84,-0.29 l -4.15,-5.65 q -0.26,-0.36 -0.02,-0.72 l 2.19,-3.3 q 0.37,-0.57 -0.2,-0.92 l -8.78,-5.43 q -0.48,-0.29 -0.77,0.19 l -1.98,3.23 a 1.13,1.11 20.1 0 1 -1.15,0.52 l -6.58,-1.09 q -0.48,-0.08 -0.59,-0.55 l -0.92,-3.93 q -0.12,-0.5 -0.62,-0.38 l -10.15,2.42 q -0.55,0.14 -0.41,0.69 l 1.01,3.95 q 0.13,0.51 -0.3,0.8 l -4.84,3.36 q -0.4,-5.34 -0.19,-15.5 c 0.08,-3.83 2.1,-4.26 5.52,-4.25 q 18.07,0.05 36.13,-0.03 0.51,0 0.84,-0.39 c 4.41,-5.14 14.18,-6.98 20.57,-7.42 a 0.28,0.28 0 0 0 0.07,-0.54 c -2.94,-1.06 -14.71,-5.88 -8.71,-10.73 2.21,-1.79 7.72,-1.68 10.55,-1.96 q 0.72,-0.07 0.14,-0.51 c -2.5,-1.83 -5.48,-4.52 -5.43,-7.67 0.18,-10.98 28.7,-3.32 24.1,3.4 -1.42,2.08 -3.07,1.62 -4.95,0.3 q -5.34,-3.73 -11.99,-3.1 -0.72,0.07 -0.16,0.53 3.64,3.01 7.43,5.62 c 3.89,2.69 2.16,6.56 -2.15,7.09 q -3.76,0.46 -7.63,0.42 a 0.35,0.34 55.3 0 0 -0.12,0.67 q 5.46,2.05 10.4,5.15 c 4.24,2.66 1.67,6.99 -2.64,7.01 q -8.57,0.04 -16.99,1.64 -0.16,0.03 -0.11,0.19 0.05,0.13 0.09,0.25 0.02,0.08 0.11,0.08 13.04,0 26.07,0.01 c 4.01,0.01 4.63,1.6 4.71,5.33 q 0.28,13.5 -0.2,26.95 z"
       id="path829" />
    <path
       fill="#ffffff"
       d="m 130.29,338.22 a 0.19,0.19 0 0 1 -0.27,-0.01 l -0.08,-0.08 a 3.79,4.55 46.5 0 1 0.69,-5.88 l 0.18,-0.17 a 3.79,4.55 46.5 0 1 5.91,-0.38 l 0.08,0.08 a 0.19,0.19 0 0 1 -0.01,0.27 z"
       id="path831" />
    <path
       fill="#ffffff"
       d="m 253.16,338.25 a 0.19,0.19 0 0 1 -0.27,0 l -0.07,-0.08 a 3.75,4.54 46.3 0 1 0.69,-5.84 l 0.21,-0.2 a 3.75,4.54 46.3 0 1 5.87,-0.42 l 0.07,0.07 a 0.19,0.19 0 0 1 -0.01,0.27 z"
       id="path833" />
    <path
       fill="#ffffff"
       d="m 432.8,338.2 a 0.19,0.19 0 0 1 -0.27,0 l -0.08,-0.08 a 3.76,4.48 46.1 0 1 0.62,-5.82 l 0.16,-0.15 a 3.76,4.48 46.1 0 1 5.84,-0.4 l 0.07,0.08 a 0.19,0.19 0 0 1 0,0.27 z"
       id="path835" />
    <path
       fill="#ffffff"
       d="m 137.94,333.3 a 0.19,0.19 0 0 1 0.27,0 l 0.07,0.07 a 3.77,4.48 46.1 0 1 -0.61,5.83 l -0.16,0.15 a 3.77,4.48 46.1 0 1 -5.84,0.39 l -0.07,-0.07 a 0.19,0.19 0 0 1 0,-0.27 z"
       id="path837" />
    <path
       fill="#ffffff"
       d="m 260.85,333.24 a 0.19,0.19 0 0 1 0.27,0.01 l 0.08,0.08 a 3.7,4.52 46 0 1 -0.69,5.8 l -0.23,0.22 a 3.7,4.52 46 0 1 -5.82,0.48 l -0.07,-0.08 a 0.19,0.19 0 0 1 0,-0.27 z"
       id="path839" />
    <path
       fill="#ffffff"
       d="m 440.42,333.29 a 0.19,0.19 0 0 1 0.27,0.01 l 0.07,0.08 a 3.76,4.55 47.3 0 1 -0.79,5.85 l -0.21,0.19 a 3.76,4.55 47.3 0 1 -5.89,0.32 l -0.07,-0.08 a 0.19,0.19 0 0 1 0.01,-0.27 z"
       id="path841" />
    <path
       fill="#052361"
       d="m 740.87,350.47 -3.24,4.12 a 0.74,0.73 45.7 0 1 -1.17,-0.02 l -9.95,-13.33 q -0.81,-1.1 0.28,-0.29 l 8.6,6.35 q 0.42,0.31 0.77,-0.08 l 6.64,-7.34 q 0.37,-0.41 0.62,0.09 l 12.13,23.78 q 0.78,1.52 -0.4,0.28 l -12.9,-13.62 q -0.73,-0.76 -1.38,0.06 z"
       id="path843" />
    <path
       fill="#ffffff"
       d="m 642.5,402.21 q -18.88,0.08 -37.75,0.02 c -4.08,-0.01 -4.6,-1.93 -4.69,-5.63 q -0.32,-13.31 0.23,-26.6 l 4.84,-3.36 q 0.43,-0.29 0.3,-0.8 l -1.01,-3.95 q -0.14,-0.55 0.41,-0.69 l 10.15,-2.42 q 0.5,-0.12 0.62,0.38 l 0.92,3.93 q 0.11,0.47 0.59,0.55 l 6.58,1.09 a 1.13,1.11 20.1 0 0 1.15,-0.52 l 1.98,-3.23 q 0.29,-0.48 0.77,-0.19 l 8.78,5.43 q 0.57,0.35 0.2,0.92 l -2.19,3.3 q -0.24,0.36 0.02,0.72 l 4.15,5.65 q 0.32,0.44 0.84,0.29 l 3.65,-1.05 q 0.63,-0.18 0.79,0.46 l 2.47,10.12 q 0.15,0.61 -0.47,0.74 l -3.79,0.78 q -0.48,0.1 -0.56,0.58 l -1.16,6.75 q -0.1,0.58 0.4,0.88 l 3.45,2.04 a 0.65,0.64 31.5 0 1 0.22,0.91 z m -17.93,-13.83 a 7.89,7.89 0 0 0 -7.89,-7.89 7.89,7.89 0 0 0 -7.89,7.89 7.89,7.89 0 0 0 7.89,7.89 7.89,7.89 0 0 0 7.89,-7.89 z"
       id="path845" />
    <circle
       fill="#ffffff"
       cx="535.34998"
       cy="367.98001"
       r="7.3000002"
       id="circle847" />
    <path
       fill="#37a2aa"
       d="m 524.6,379.96 c -6.71,7.22 -8.22,17.45 -3.6,26.45 q 0.26,0.51 -0.17,0.88 l -5.25,4.56 a 0.68,0.68 0 0 1 -0.96,-0.06 c -12.37,-13.85 -10.07,-33.48 4.77,-44.3 a 0.37,0.37 0 0 1 0.58,0.28 q 0.27,6.46 4.64,11.18 a 0.74,0.75 45 0 1 -0.01,1.01 z"
       id="path849" />
    <path
       fill="#052361"
       d="m 142.4636,400.6619 a 21.91,21.91 0 0 1 -21.9482,21.8717 l -4.16,-0.007 A 21.91,21.91 0 0 1 94.4837,400.5781 l 0.0127,-7.28 a 21.91,21.91 0 0 1 21.9482,-21.8717 l 4.16,0.007 a 21.91,21.91 0 0 1 21.8717,21.9482 z M 118.42,414.08 c 18.71,0.74 18.92,-37.23 -1.93,-34.08 -16.64,2.51 -15.83,33.38 1.93,34.08 z"
       id="path851" />
    <path
       fill="#052361"
       d="m 312.2769,400.7635 a 21.88,21.88 0 0 1 -21.9562,21.8035 l -4.1,-0.0143 a 21.88,21.88 0 0 1 -21.8035,-21.9563 l 0.0259,-7.3999 a 21.88,21.88 0 0 1 21.9562,-21.8035 l 4.1,0.0143 a 21.88,21.88 0 0 1 21.8035,21.9563 z M 298.66,409.02 c 6.5,-8.5 4.63,-27.35 -8.53,-28.97 -16.45,-2.03 -20.11,21.82 -10.27,30.76 5.43,4.93 14.3,4.1 18.8,-1.79 z"
       id="path853" />
    <path
       fill="#37a2aa"
       d="m 543.07,381.29 c 3.91,-2.95 5.94,-5.37 7.08,-9.42 q 0.31,-1.07 1.01,-0.2 c 11.48,14.11 8.73,32.98 -6.12,43.67 q -0.68,0.49 -1.15,-0.19 L 540,409.56 q -0.3,-0.44 0.03,-0.86 9.92,-12.27 2.85,-26.62 -0.23,-0.47 0.19,-0.79 z"
       id="path855" />
    <path
       fill="#052361"
       d="m 73.5,404.2 v -31.74 q 0,-0.54 0.54,-0.53 l 8.23,0.1 q 0.48,0.01 0.48,0.49 v 48.71 q 0,0.47 -0.48,0.48 l -9.12,0.13 q -0.48,0.01 -0.73,-0.4 l -19.1,-30.92 q -0.59,-0.96 -0.59,0.16 l 0.03,30.53 q 0,0.47 -0.47,0.48 l -8.59,0.2 a 0.44,0.44 0 0 1 -0.45,-0.44 v -48.79 q 0,-0.6 0.6,-0.61 l 8.72,-0.16 q 0.54,-0.01 0.83,0.46 l 19.56,32 q 0.54,0.89 0.54,-0.15 z"
       id="path857" />
    <path
       fill="#052361"
       d="m 334.51,409.49 c 4.15,7.56 18,6.03 18.1,-4.06 q 0.16,-16.44 0.15,-32.92 0,-0.51 0.51,-0.51 h 9.2 q 0.47,0 0.48,0.47 0.25,16.66 -0.22,33.29 -0.44,15.65 -16.16,16.84 c -12.57,0.95 -22.91,-2.71 -23.18,-17.3 q -0.31,-16.4 -0.08,-32.83 0.01,-0.48 0.48,-0.48 l 8.96,0.01 q 0.55,0 0.54,0.55 -0.18,15.39 0.11,30.74 0.08,4.31 1.11,6.2 z"
       id="path859" />
    <path
       fill="#052361"
       d="m 174.75,380.81 v 40.61 a 0.31,0.31 0 0 1 -0.31,0.31 l -9.63,0.06 a 0.31,0.31 0 0 1 -0.31,-0.31 v -40.67 a 0.31,0.31 0 0 0 -0.31,-0.31 h -14.13 a 0.31,0.31 0 0 1 -0.31,-0.31 v -7.88 a 0.31,0.31 0 0 1 0.31,-0.31 h 39.13 a 0.31,0.31 0 0 1 0.31,0.31 v 7.88 a 0.31,0.31 0 0 1 -0.31,0.31 h -14.13 a 0.31,0.31 0 0 0 -0.31,0.31 z"
       id="path861" />
    <path
       fill="#052361"
       d="m 231,380.82 v 11.11 a 0.32,0.32 0 0 0 0.32,0.32 h 20.11 a 0.32,0.32 0 0 1 0.32,0.32 v 7.86 a 0.32,0.32 0 0 1 -0.32,0.32 h -20.11 a 0.32,0.32 0 0 0 -0.32,0.32 v 20.4 a 0.32,0.32 0 0 1 -0.32,0.32 h -9.36 A 0.32,0.32 0 0 1 221,421.47 l -0.01,-49.15 a 0.32,0.32 0 0 1 0.32,-0.32 h 33.62 a 0.32,0.32 0 0 1 0.32,0.32 v 7.86 a 0.32,0.32 0 0 1 -0.32,0.32 h -23.61 a 0.32,0.32 0 0 0 -0.32,0.32 z"
       id="path863" />
    <path
       fill="#052361"
       d="m 406.31,404.66 a 0.15,0.15 0 0 0 0.28,-0.08 l 0.06,-32.03 q 0,-0.55 0.55,-0.55 h 8.27 q 0.53,0 0.53,0.53 v 48.69 q 0,0.54 -0.54,0.54 l -9.05,-0.01 q -0.64,0 -0.97,-0.55 l -19.06,-30.87 a 0.34,0.34 0 0 0 -0.63,0.18 v 30.75 q 0,0.52 -0.52,0.52 l -8.32,0.03 a 0.4,0.4 0 0 1 -0.41,-0.4 V 372.5 q 0,-0.5 0.5,-0.5 h 8.79 q 0.54,0 0.82,0.46 z"
       id="path865" />
    <path
       fill="#052361"
       d="m 429.54,372.26 a 0.34,0.34 0 0 1 0.34,-0.34 l 21.68,0.04 a 19.68,21.79 0.1 0 1 19.65,21.83 l -0.02,6.3 a 19.68,21.79 0.1 0 1 -19.71,21.75 L 429.8,421.8 a 0.34,0.34 0 0 1 -0.34,-0.34 z m 10.06,8.87 0.16,31.69 a 0.55,0.55 0 0 0 0.56,0.55 l 9.35,-0.05 a 12.18,11.16 89.7 0 0 11.09,-12.24 l -0.04,-8.44 a 12.18,11.16 89.7 0 0 -11.23,-12.12 l -9.35,0.05 a 0.55,0.55 0 0 0 -0.54,0.56 z"
       id="path867" />
    <path
       fill="#ffffff"
       d="m 685.75,382.54 q 0.4,6.48 0.2,15.46 c -0.08,3.48 -2.07,4.25 -5.29,4.26 q -7.95,0.01 -15.91,-0.05 l -1.18,-3.15 q -0.21,-0.56 -0.8,-0.56 h -1.85 q -0.58,0 -0.59,-0.58 l -0.08,-5.91 q -0.01,-0.71 0.69,-0.58 l 1.72,0.33 q 0.57,0.1 0.79,-0.43 l 1.49,-3.57 q 0.23,-0.55 -0.24,-0.91 l -1.37,-1.08 q -0.52,-0.42 -0.05,-0.9 l 4.24,-4.32 q 0.33,-0.33 0.65,0 l 1.43,1.42 q 0.4,0.41 0.94,0.19 l 3.52,-1.47 q 0.52,-0.21 0.48,-0.78 l -0.15,-1.8 q -0.05,-0.61 0.56,-0.61 h 5.8 q 0.5,0 0.5,0.5 v 1.96 q 0,0.58 0.53,0.82 z m -3.21,12.57 a 4.69,4.69 0 0 0 -4.69,-4.69 4.69,4.69 0 0 0 -4.69,4.69 4.69,4.69 0 0 0 4.69,4.69 4.69,4.69 0 0 0 4.69,-4.69 z"
       id="path869" />
    <circle
       fill="#052361"
       cx="616.67999"
       cy="388.38"
       r="7.8899999"
       id="circle877" />
    <path
       fill="#ffffff"
       d="m 530.22,406.33 c -4.93,-8.69 -6.07,-14.63 1.63,-22.52 a 1.54,1.53 46.7 0 1 2.25,0.07 c 6.68,7.69 3.9,16.13 -3.3,22.54 q -0.35,0.31 -0.58,-0.09 z"
       id="path879" />
    <circle
       fill="#052361"
       cx="677.84998"
       cy="395.10999"
       r="4.6900001"
       id="circle881" />
    <path
       fill="#248190"
       d="m 573.5,420.71 q 5.02,8.68 14.51,11.64 0.48,0.15 0.29,0.61 l -3.76,9.04 c -6.25,-0.94 -33.92,-4.42 -34.35,-11.9 q -0.03,-0.5 0.3,-0.87 c 4.79,-5.32 16.14,-7.49 23.01,-8.52 z"
       id="path883" />
    <path
       fill="#248190"
       d="m 712.5,420.71 c 4.78,0.8 19.05,3.53 22.1,7.2 7.61,9.17 -29.5,13.5 -33.1,13.88 l -3.65,-8.66 q -0.24,-0.58 0.35,-0.78 9.34,-3.11 14.3,-11.64 z"
       id="path885" />
    <path
       fill="#37a2aa"
       d="m 603.25,433.04 q 1.37,1.2 2.95,2.09 c 2.59,1.47 3.4,2.94 5.09,5.12 l -24.52,17.68 a 0.18,0.18 0 0 1 -0.27,-0.21 l 10.35,-24.28 q 0.23,-0.53 0.81,-0.52 z"
       id="path887" />
    <path
       fill="#248190"
       d="m 611.29,440.25 c -1.69,-2.18 -2.5,-3.65 -5.09,-5.12 q -1.58,-0.89 -2.95,-2.09 l 17.5,0.06 q 0.83,0 0.14,0.48 z"
       id="path889" />
    <path
       fill="#248190"
       d="m 666.09,444.45 q -22.96,1.33 -45.93,-0.01 7.24,-6.07 15.03,-11.21 0.43,-0.28 0.94,-0.28 l 13.64,-0.15 q 0.49,0 0.88,0.29 z"
       id="path891" />
    <path
       fill="#37a2aa"
       d="m 674.5,440.21 q 3.62,-4.87 9.25,-7.17 l 4.58,-0.16 q 0.63,-0.03 0.88,0.56 l 10.2,24.07 q 0.33,0.78 -0.35,0.28 z"
       id="path893" />
    <path
       fill="#248190"
       d="m 683.75,433.04 q -5.63,2.3 -9.25,7.17 l -9.39,-6.64 q -0.67,-0.47 0.15,-0.47 z"
       id="path895" />
    <path
       fill="#052361"
       d="m 534.39,459.96 c -1.04,-3.88 -2.61,-9.96 1.97,-11.42 3.68,-1.18 7.97,2.82 9.75,5.61 q 0.87,1.37 1.27,-0.21 1.66,-6.57 6.27,-7.12 c 8.24,-0.99 13.52,11.99 13.97,18.41 0.29,4.18 -4.56,5.98 -7.45,2.84 q -0.38,-0.41 -0.37,-0.96 0.14,-6.29 -3.96,-11.03 a 0.34,0.33 24.3 0 0 -0.59,0.22 c 0.02,2.89 0.91,9.17 -2.16,10.98 -3.81,2.23 -7.17,-1.98 -9.26,-4.58 a 0.38,0.38 0 0 0 -0.65,0.37 q 1.11,2.99 1.22,5.89 c 0.24,5.94 -4.78,7.55 -8.78,3.66 -3.61,-3.5 -7.44,-7.75 -11.81,-10.28 q -0.88,-0.51 -0.43,0.4 c 1.08,2.17 3.44,5.24 3.59,7.29 0.17,2.41 -2.5,4.51 -4.88,3.85 -4.45,-1.25 -9.11,-13.88 -6.44,-17.99 4.18,-6.43 14,0.4 18.26,4.36 q 0.74,0.68 0.48,-0.29 z"
       id="path1115" />
  </g>
</svg>
