<?xml version="1.0" standalone="no"?>
<!DOCTYPE svg PUBLIC "-//W3C//DTD SVG 20010904//EN"
 "http://www.w3.org/TR/2001/REC-SVG-20010904/DTD/svg10.dtd">
<svg version="1.0" xmlns="http://www.w3.org/2000/svg"
 width="1024.000000pt" height="1024.000000pt" viewBox="0 0 1024.000000 1024.000000"
 preserveAspectRatio="xMidYMid meet">
<metadata>
Created by potrace 1.14, written by Peter Selinger 2001-2017
</metadata>
<g transform="translate(0.000000,1024.000000) scale(0.100000,-0.100000)"
fill="#000000" stroke="none">
<path d="M4780 9250 c-1242 -115 -2326 -743 -3037 -1758 -389 -556 -632 -1194
-730 -1920 -25 -187 -25 -761 0 -957 64 -494 189 -911 401 -1341 433 -880
1167 -1593 2039 -1978 697 -308 1445 -422 2169 -330 1094 138 2082 708 2783
1609 346 444 621 1016 756 1570 86 354 114 640 106 1050 -7 361 -41 612 -127
940 -304 1167 -1104 2161 -2170 2695 -402 202 -846 337 -1315 401 -118 16
-218 21 -465 24 -173 2 -358 0 -410 -5z m855 -259 c340 -46 686 -141 999 -272
1049 -441 1857 -1329 2215 -2433 77 -237 132 -496 167 -786 22 -178 25 -587 6
-770 -103 -986 -580 -1909 -1335 -2578 l-47 -43 -183 139 c-100 76 -267 201
-372 277 -104 76 -210 156 -235 177 -24 22 -123 89 -220 150 -96 61 -199 126
-228 145 l-53 33 31 43 c16 23 46 60 65 82 32 36 34 38 25 12 -13 -36 -13 -67
-1 -67 16 0 150 112 237 196 169 166 253 343 285 599 7 59 8 167 4 312 l-7
222 38 5 c167 25 303 99 401 218 57 68 117 193 137 285 23 102 21 261 -4 357
-51 201 -207 379 -378 433 l-54 17 6 66 c4 36 45 290 91 565 91 546 141 854
180 1106 13 90 27 178 31 196 l6 31 -80 -28 c-45 -16 -85 -31 -90 -34 -5 -3
-12 34 -16 83 -14 194 -90 371 -235 551 -96 119 -219 200 -386 253 -214 68
-253 81 -290 100 -60 30 -153 106 -176 144 -31 49 -46 42 -60 -27 l-12 -60
-71 39 c-180 99 -362 144 -576 145 -218 1 -402 -43 -600 -143 -80 -41 -110
-50 -190 -60 -228 -29 -411 -83 -630 -187 -75 -35 -143 -64 -153 -64 -35 0
-240 -72 -324 -115 -184 -92 -371 -237 -506 -392 -42 -49 -82 -96 -90 -107
-13 -17 -17 -18 -91 -2 -106 22 -111 22 -92 -6 20 -29 20 -55 -1 -148 -13 -56
-17 -126 -17 -280 -1 -272 19 -377 155 -800 80 -246 137 -492 172 -734 l13
-89 -35 -13 c-92 -35 -151 -74 -221 -144 -122 -121 -178 -253 -187 -440 -13
-253 89 -477 279 -610 84 -59 153 -86 255 -102 l75 -11 -6 -56 c-12 -116 -15
-409 -5 -486 17 -131 47 -234 101 -345 47 -96 62 -115 167 -221 116 -116 234
-219 251 -219 5 0 10 18 12 41 l3 41 53 -65 c28 -35 52 -69 52 -75 0 -5 -105
-75 -232 -155 -128 -80 -256 -165 -284 -189 -27 -24 -126 -99 -218 -168 -92
-69 -254 -191 -358 -272 l-191 -147 -96 88 c-727 671 -1181 1579 -1272 2541
-25 273 -9 712 37 985 180 1079 790 2036 1679 2634 563 379 1139 578 1890 655
22 2 175 2 340 1 234 -3 333 -8 450 -24z m30 -250 c159 -33 322 -108 477 -221
94 -68 252 -225 243 -240 -5 -8 -4 -11 2 -7 6 4 23 -10 39 -30 15 -20 22 -33
16 -29 -18 11 -15 1 28 -94 75 -169 84 -203 84 -335 1 -100 -3 -130 -22 -180
-12 -32 -29 -66 -37 -74 -13 -14 -15 -12 -15 14 0 54 -60 327 -87 394 -54 139
-186 307 -322 410 -195 149 -383 240 -597 289 -125 29 -348 55 -407 48 -27 -3
-48 -3 -45 -1 8 8 196 55 254 64 109 16 292 12 389 -8z m-567 -182 c277 -30
535 -114 704 -230 33 -22 57 -35 52 -28 -10 16 83 -50 99 -71 11 -13 10 -13
-8 0 -11 8 25 -33 80 -90 56 -58 116 -129 135 -157 37 -58 49 -69 26 -25 -24
46 -95 133 -164 200 -36 34 -61 62 -55 62 15 0 162 -156 201 -213 39 -56 107
-195 99 -203 -3 -3 -18 4 -34 16 -16 11 -88 47 -160 79 -72 32 -220 106 -329
164 -558 298 -885 409 -1224 419 l-65 2 70 7 c57 5 48 6 -45 4 -111 -2 -113
-2 -70 11 178 55 468 77 688 53z m1366 -78 c47 -15 82 -32 78 -36 -4 -5 -2 -5
5 -1 16 9 64 -4 57 -15 -3 -5 2 -6 10 -3 26 10 179 -73 243 -130 65 -59 103
-121 129 -211 14 -49 16 -80 10 -170 -4 -60 -13 -143 -20 -183 -14 -79 -67
-194 -116 -252 l-30 -35 25 53 c91 191 65 445 -65 630 -66 94 -128 153 -232
219 -49 30 -88 57 -88 59 0 3 5 2 12 -2 7 -5 8 -3 4 5 -5 7 -14 10 -22 7 -7
-3 -16 0 -20 6 -4 7 -3 8 4 4 7 -4 12 -5 12 -3 0 2 -29 23 -64 46 -68 44 -102
85 -46 56 16 -8 67 -28 114 -44z m-1744 -146 c193 -26 366 -70 489 -126 35
-16 66 -27 68 -25 2 2 -23 19 -56 37 -33 18 -59 35 -57 37 7 6 119 -49 204
-100 165 -99 306 -273 382 -469 31 -80 66 -250 56 -275 -10 -27 -67 -17 -98
18 -15 17 -28 36 -28 41 0 6 -2 8 -5 5 -3 -3 2 -25 11 -48 14 -36 15 -43 3
-51 -21 -13 -37 -11 -47 7 -9 15 -14 15 -68 -4 -33 -11 -86 -32 -119 -46 -33
-14 -68 -26 -78 -26 -10 0 -89 73 -180 166 -179 183 -278 260 -442 342 -105
52 -225 102 -245 102 -7 0 -75 25 -151 55 -135 54 -347 116 -392 114 -12 0 33
-16 101 -34 192 -54 480 -179 541 -236 10 -10 21 -15 25 -12 3 3 8 -2 12 -11
7 -18 63 -52 79 -47 6 1 7 0 3 -4 -4 -4 19 -27 51 -51 32 -24 77 -64 100 -89
22 -24 44 -45 47 -44 12 0 93 -99 86 -106 -4 -5 -2 -5 5 -1 6 3 14 2 18 -4 3
-5 1 -10 -5 -10 -6 0 -8 -4 -5 -10 3 -5 2 -10 -3 -10 -5 0 -12 -9 -15 -20 -5
-18 -11 -20 -49 -15 -77 11 -230 68 -358 133 -236 120 -444 172 -820 207 -36
4 -121 17 -190 30 -161 31 -348 55 -425 55 l-60 1 115 112 c226 220 435 331
737 393 68 13 172 29 231 34 134 11 394 4 532 -15z m-1696 -614 c4 -5 -3 -7
-14 -4 -23 6 -26 13 -6 13 8 0 17 -4 20 -9z m4268 -224 c-6 -12 -32 -89 -58
-172 -65 -209 -52 -190 -137 -188 l-72 2 65 -12 c74 -14 73 -10 49 -125 -9
-43 -17 -61 -25 -58 -31 12 -96 27 -100 23 -3 -2 20 -14 51 -27 57 -23 62 -29
44 -47 -8 -8 -20 -7 -45 3 -51 21 -54 17 -6 -12 48 -28 50 -36 22 -64 -11 -11
-20 -24 -20 -30 0 -6 -3 -9 -7 -8 -5 1 -18 -4 -31 -11 -43 -23 -84 20 -152
163 -18 38 -32 79 -32 91 0 11 26 57 59 101 32 43 85 117 118 163 108 150 333
320 277 208z m-1077 -187 c163 -19 339 -75 467 -149 l63 -36 7 -106 c6 -107
23 -163 112 -374 25 -60 25 -61 25 -372 0 -172 -2 -313 -4 -313 -3 0 -26 15
-52 34 -300 211 -710 246 -1047 87 -200 -93 -394 -271 -486 -445 l-25 -46
-160 0 -160 0 -20 37 c-36 68 -134 190 -207 257 -135 125 -299 216 -476 263
-85 23 -118 26 -262 27 -127 1 -183 -3 -245 -18 -120 -27 -222 -70 -314 -130
l-82 -54 6 236 c9 357 24 598 41 674 14 60 21 72 58 103 49 40 168 97 242 115
40 10 89 10 245 1 298 -19 853 -25 997 -12 171 16 331 49 577 119 377 108 496
125 700 102z m-2925 -424 c0 -33 -131 -178 -228 -253 -36 -28 -59 -21 -48 15
8 23 249 262 265 262 6 0 11 -11 11 -24z m610 -781 c0 -3 -15 -13 -32 -21 -31
-14 -32 -15 -5 -9 24 5 28 3 25 -12 -2 -13 -17 -20 -52 -25 -63 -9 -240 -70
-226 -78 5 -3 -6 -6 -25 -7 -19 -1 -32 3 -29 8 3 5 11 6 17 3 7 -4 8 -3 4 1
-11 13 -37 15 -37 4 0 -6 -4 -8 -9 -5 -5 3 -11 -1 -15 -9 -4 -11 1 -15 17 -15
21 0 20 -1 -6 -18 -15 -10 -24 -22 -20 -27 5 -4 3 -5 -3 -2 -6 4 -20 0 -30 -8
-25 -19 -38 -19 -30 0 5 13 3 13 -18 0 -12 -8 -25 -13 -28 -9 -3 3 -9 0 -14
-7 -5 -8 -3 -10 7 -4 8 4 3 -3 -11 -16 -13 -13 -28 -23 -32 -22 -4 2 -5 -4 -1
-12 4 -12 9 -13 19 -4 23 19 16 4 -8 -17 -12 -10 -18 -13 -14 -6 10 17 -9 15
-24 -3 -6 -8 -9 -19 -5 -25 4 -6 3 -10 -2 -9 -19 3 -23 -2 -13 -20 8 -16 4
-25 -25 -52 -33 -32 -48 -58 -23 -43 7 5 8 3 3 -6 -6 -10 -11 -9 -21 4 -8 12
-14 14 -19 5 -4 -6 -1 -15 6 -20 10 -6 4 -9 -18 -9 l-33 0 18 48 c64 167 289
357 496 417 92 27 216 44 216 30z m2605 -25 c226 -72 410 -215 495 -384 34
-66 37 -86 15 -86 -8 0 -24 19 -35 43 -21 44 -27 52 -129 174 -74 87 -179 163
-281 202 -75 29 -202 49 -337 52 -48 2 -63 5 -63 17 0 24 244 11 335 -18z
m-2287 -179 c154 -45 306 -142 392 -252 29 -36 29 -37 8 -31 -25 7 -53 26
-125 84 -25 20 -68 48 -97 64 l-51 27 36 -34 c20 -19 42 -44 48 -56 6 -13 17
-22 24 -20 7 1 11 -3 10 -10 -2 -6 6 -15 17 -18 11 -4 20 -13 20 -20 0 -8 9
-19 20 -25 11 -6 18 -15 15 -19 -3 -5 1 -11 9 -14 17 -7 77 -131 101 -207 11
-34 19 -105 22 -185 6 -151 -13 -250 -69 -365 -38 -78 -182 -227 -270 -279
-114 -66 -243 -106 -368 -112 -30 -2 -61 -7 -67 -12 -17 -12 -111 0 -176 22
-122 42 -245 125 -350 236 l-29 30 31 -46 c41 -63 144 -167 220 -222 78 -58
69 -60 -23 -5 -42 24 -109 79 -162 132 -105 105 -157 190 -205 336 -18 52 -36
101 -42 108 -6 8 -38 12 -92 12 -66 0 -84 3 -89 16 -3 9 -6 77 -6 152 0 132
10 224 31 306 l10 38 107 -6 c146 -9 186 3 229 69 102 154 281 278 467 320 91
21 309 13 404 -14z m2227 -1 c152 -49 315 -157 385 -256 19 -27 26 -43 17 -35
-9 7 -17 10 -17 5 0 -4 -10 1 -22 12 -36 30 -86 64 -97 64 -5 0 -11 4 -13 9
-4 12 -78 61 -92 61 -6 0 32 -44 85 -97 65 -66 106 -118 127 -159 146 -290
107 -604 -102 -816 -142 -144 -327 -234 -519 -253 -37 -4 -65 -11 -62 -16 17
-27 -171 7 -262 46 -146 65 -298 214 -380 375 -34 66 -17 7 22 -77 41 -89 83
-151 150 -222 65 -71 12 -35 -62 41 -121 125 -192 294 -200 478 -20 419 233
766 622 856 95 22 331 13 420 -16z m-3329 -268 c-6 -16 -17 -21 -61 -24 -36
-2 -51 0 -44 7 11 11 102 44 107 39 2 -1 1 -11 -2 -22z m4031 -9 c2 -6 -5 -13
-17 -16 -11 -3 -20 -2 -20 1 0 4 -3 18 -7 32 -6 24 -6 24 17 9 13 -9 25 -20
27 -26z m81 -11 c12 -8 22 -16 22 -18 0 -7 -66 20 -80 33 -13 13 -12 14 10 8
14 -5 35 -15 48 -23z m-4319 -142 c-11 -47 -24 -93 -30 -104 -7 -13 -7 -16 0
-11 6 3 11 -1 11 -10 0 -9 -4 -13 -10 -10 -5 3 -10 -1 -10 -9 0 -9 -14 -19
-32 -24 -29 -7 -34 -14 -41 -53 -5 -24 -16 -50 -25 -57 -13 -9 -14 -15 -5 -20
8 -5 12 -34 12 -82 -2 -147 56 -287 158 -389 77 -76 146 -114 247 -135 37 -8
71 -17 74 -20 30 -31 -121 -1 -205 40 -126 63 -227 182 -274 326 -20 61 -24
93 -24 198 0 136 16 215 60 306 23 46 103 149 110 142 2 -2 -5 -41 -16 -88z
m4491 -26 c72 -119 101 -315 70 -471 -20 -98 -85 -219 -154 -289 -56 -56 -166
-125 -198 -124 -7 1 8 12 34 25 61 32 168 132 208 195 77 120 115 339 80 460
l-16 55 -46 3 c-45 3 -47 4 -53 40 -3 20 -2 58 3 84 8 38 6 55 -9 89 -11 22
-19 44 -19 47 0 15 69 -64 100 -114z m-2021 62 c-6 -13 -21 -27 -33 -31 -11
-3 -123 -9 -247 -12 l-226 -6 -17 33 c-9 18 -16 35 -16 37 0 1 124 3 275 3
l275 0 -11 -24z m1829 -21 c36 -109 55 -410 28 -453 -4 -8 -36 -12 -86 -12
-69 0 -82 -3 -100 -22 -24 -26 -26 -18 -5 23 19 35 50 49 112 49 l45 0 -5 153
c-3 105 -11 172 -24 217 l-18 65 -45 4 -45 5 50 6 c74 10 79 8 93 -35z m-2254
-317 c-6 -150 -22 -356 -30 -409 -6 -35 -10 -39 -35 -39 -15 0 -40 -5 -54 -10
-15 -6 -25 -7 -23 -3 40 84 60 137 78 210 19 75 22 107 18 230 l-4 143 28 0
28 0 -6 -122z m234 -125 c12 -244 26 -341 57 -390 11 -16 29 -23 72 -28 79
-10 123 -54 123 -123 0 -34 -13 -47 -57 -57 -18 -3 -49 -20 -69 -36 -46 -36
-120 -59 -195 -59 -69 0 -179 32 -204 60 -9 10 -34 24 -54 31 -64 20 -77 59
-41 129 23 46 45 60 93 60 86 0 102 57 119 408 l12 252 66 0 66 0 12 -247z
m125 205 c-13 -73 -7 -258 10 -331 10 -38 32 -101 50 -140 l33 -72 -52 9 -52
10 -6 45 c-10 80 -25 262 -32 394 l-7 127 32 0 31 0 -7 -42z m-558 -848 c9
-10 36 -23 59 -29 35 -7 25 -9 -64 -10 -61 -1 -145 -10 -200 -21 -52 -11 -97
-20 -100 -20 -3 0 27 21 65 46 87 57 205 153 206 168 1 6 5 -17 9 -52 4 -37
14 -70 25 -82z m880 10 c28 -19 77 -50 110 -68 33 -18 51 -31 40 -28 -11 3
-38 10 -61 15 -87 23 -153 31 -244 32 -88 1 -92 2 -56 13 49 14 80 54 81 105
l0 39 40 -37 c22 -20 63 -52 90 -71z m1255 38 c0 -30 -1 -31 -17 -16 -13 14
-14 20 -3 32 18 22 20 20 20 -16z m-3510 -8 c0 -4 -7 -10 -15 -14 -11 -4 -15
2 -15 21 0 21 2 24 15 13 8 -7 15 -16 15 -20z m70 -57 c24 -14 28 -23 28 -60
0 -56 27 -137 64 -193 l30 -44 -32 -29 c-29 -26 -31 -30 -17 -45 13 -12 19
-13 31 -3 8 6 28 16 45 21 25 7 31 6 31 -6 0 -8 5 -12 10 -9 19 12 10 -4 -34
-55 -53 -62 -84 -151 -93 -261 l-6 -78 -27 14 c-34 18 -40 32 -40 103 0 69 23
171 52 230 11 24 18 46 14 49 -11 11 -44 -28 -63 -73 -10 -24 -21 -44 -25 -44
-4 0 -15 12 -23 28 l-16 27 5 -32 c3 -18 1 -33 -4 -33 -5 0 -10 -12 -12 -27
-9 -65 -20 161 -16 327 3 166 5 183 23 196 25 18 41 18 75 -3z m3437 -288 c-3
-159 -10 -257 -19 -289 l-14 -49 -22 84 c-13 46 -35 108 -49 137 -25 50 -26
55 -10 63 33 19 47 68 57 191 5 68 10 129 10 137 0 10 8 7 26 -10 l26 -24 -5
-240z m-2102 185 c-22 -24 -17 -25 21 -5 37 19 75 18 144 -4 44 -14 54 -21 52
-37 -11 -66 -23 -105 -32 -99 -4 3 -7 -3 -6 -13 1 -12 -5 -16 -21 -15 -13 2
-23 -2 -23 -7 0 -6 -9 -10 -21 -10 -16 0 -19 4 -14 23 4 12 13 32 21 45 8 12
10 22 5 22 -5 0 -13 -4 -16 -10 -3 -5 -32 -17 -63 -26 -31 -9 -109 -32 -172
-51 -224 -67 -474 -102 -634 -88 -123 10 -271 62 -260 90 3 8 21 8 64 1 89
-15 179 4 429 89 192 66 385 114 399 100 3 -3 -1 -5 -10 -5 -8 0 -23 -10 -34
-21 l-19 -22 35 18 c47 25 109 44 144 44 28 1 29 1 11 -19z m619 10 c7 0 38
-15 69 -34 31 -19 57 -33 57 -31 0 2 -21 20 -46 40 -41 30 -44 35 -23 35 54
-1 112 -19 162 -49 l52 -32 -39 36 c-21 19 -35 35 -32 35 32 0 215 -51 361
-100 260 -87 327 -103 405 -96 36 3 76 9 89 12 17 5 22 3 19 -6 -9 -29 -58
-52 -153 -71 -87 -18 -125 -20 -295 -16 -219 5 -319 21 -542 86 -73 22 -142
43 -152 47 -16 6 -18 4 -14 -18 5 -25 3 -26 -31 -21 -41 6 -40 5 -71 57 -13
22 -18 36 -11 32 8 -6 7 1 -3 16 -13 21 -14 27 -3 36 29 24 145 55 175 46 8
-2 19 -4 26 -4z m-1697 -31 c67 -25 175 -40 295 -40 71 0 128 -2 128 -4 0 -2
-38 -16 -84 -31 -72 -22 -99 -25 -178 -22 -115 4 -191 35 -196 81 -4 31 -3 31
35 16z m-56 -16 c13 -16 12 -17 -3 -4 -17 13 -22 21 -14 21 2 0 10 -8 17 -17z
m2886 -3 c-4 -17 -2 -18 16 -9 14 7 11 2 -8 -15 -88 -75 -250 -82 -395 -17
l-45 20 130 1 c84 1 156 8 205 20 101 24 103 24 97 0z m-1376 -199 c24 -11 91
-32 149 -48 l105 -28 -65 -8 c-146 -18 -539 -8 -499 13 8 4 51 17 97 29 64 17
141 45 168 60 1 1 21 -8 45 -18z m1593 -78 c18 -56 46 -211 46 -257 0 -24 -9
-39 -42 -68 l-43 -37 -22 117 c-14 73 -33 138 -51 172 l-28 55 55 32 c31 18
59 33 63 33 3 0 13 -21 22 -47z m-3046 -46 c17 -67 55 -120 115 -161 69 -47
142 -71 312 -102 189 -35 266 -30 440 24 245 77 325 93 500 99 236 8 347 -10
637 -103 129 -41 146 -44 247 -44 129 0 275 32 387 86 79 37 155 110 174 168
6 18 21 38 35 44 21 10 27 8 44 -14 41 -52 97 -267 81 -310 -8 -19 -98 -84
-118 -84 -4 0 -25 -18 -46 -41 -121 -132 -381 -348 -494 -409 -41 -23 -42 -23
-57 -4 -11 14 -15 15 -14 4 3 -31 -2 -38 -32 -49 l-32 -11 6 45 c7 50 -15 198
-37 248 -14 31 -14 29 -15 -55 -1 -85 -2 -87 -40 -135 -80 -99 -139 -140 -291
-199 -250 -96 -476 -103 -724 -23 -127 42 -241 104 -303 166 -74 74 -93 116
-93 205 0 46 -4 67 -9 58 -18 -30 -34 -137 -34 -217 l0 -82 -28 15 c-34 17
-33 11 -14 64 21 58 12 63 -10 6 -10 -25 -21 -46 -24 -46 -22 0 -232 151 -322
231 -179 159 -259 222 -338 266 l-76 41 -3 46 c-6 84 71 296 119 330 28 19 40
7 57 -57z m104 13 c146 -64 384 -69 760 -14 96 13 115 13 195 0 227 -40 491
-40 713 -2 66 12 93 11 220 -5 368 -48 532 -46 696 9 l81 27 -10 -33 c-27 -85
-126 -153 -292 -198 -82 -23 -122 -28 -220 -28 -120 -1 -120 -1 -290 55 -235
78 -320 93 -535 93 -205 -1 -287 -15 -537 -94 -208 -67 -241 -69 -438 -35
-172 30 -217 42 -282 81 -45 26 -97 93 -109 137 -7 32 -8 32 48 7z m309 -1060
c73 -52 273 -115 459 -145 91 -14 321 -42 387 -47 l31 -2 -42 -56 c-59 -77
-119 -183 -191 -333 l-62 -129 -92 77 c-235 195 -445 447 -516 618 -18 43 -14
45 26 17z m2029 -4 c-40 -107 -146 -264 -262 -391 -134 -146 -331 -326 -343
-313 -2 2 -25 49 -50 103 -61 131 -144 277 -200 354 l-45 61 38 0 c37 0 278
29 407 50 161 25 314 78 462 159 1 0 -2 -10 -7 -23z m-2374 -256 c102 -75 111
-83 95 -88 -16 -5 -191 115 -191 132 0 17 34 1 96 -44z m419 -90 c103 -124
264 -289 345 -354 72 -58 177 -130 199 -138 17 -5 57 30 62 55 5 22 99 -144
106 -188 4 -22 -9 -65 -45 -155 -55 -137 -127 -301 -174 -394 l-31 -60 -34 67
c-18 37 -47 109 -64 160 -17 51 -33 94 -36 97 -3 3 -3 -24 1 -58 9 -78 39
-178 77 -255 39 -80 30 -97 -43 -86 -29 5 -86 17 -127 27 l-74 18 -63 239
c-138 519 -203 875 -204 1105 0 51 -9 59 105 -80z m1950 13 c-15 -232 -50
-446 -125 -758 -39 -161 -137 -515 -145 -523 -6 -7 -117 -32 -141 -32 -21 0
-21 1 11 128 18 70 35 147 39 172 l6 45 -17 -35 c-9 -19 -38 -81 -64 -137 -26
-57 -51 -103 -54 -103 -3 0 -3 5 0 10 3 6 3 20 0 31 -5 14 -10 18 -14 10 -4
-7 -14 4 -24 26 -11 25 -12 32 -3 20 12 -16 14 -16 14 8 0 14 -5 22 -11 18 -5
-3 -8 0 -5 8 6 17 -27 53 -41 45 -7 -5 -8 -1 -4 10 4 12 3 15 -5 10 -8 -5 -10
-1 -5 10 4 12 3 15 -5 10 -7 -4 -13 -1 -13 6 -1 7 -2 19 -3 26 0 7 -8 17 -16
22 -8 5 -11 10 -6 10 5 0 2 7 -5 16 -21 26 -129 267 -123 276 3 4 0 8 -5 8
-12 0 -14 29 -5 54 3 9 11 13 17 9 6 -3 7 -1 3 5 -4 6 5 35 20 64 23 46 28 50
39 35 12 -17 13 -17 20 0 6 17 7 17 20 -1 14 -18 15 -18 50 3 20 11 33 15 30
9 -4 -7 3 -2 15 12 12 14 18 18 14 10 -4 -8 9 1 28 20 19 19 63 58 97 85 81
65 353 365 403 445 7 11 15 20 17 20 2 0 0 -48 -4 -107z m-906 -107 c12 -18
46 -95 76 -171 l55 -137 -47 -89 -47 -88 -63 -7 c-35 -3 -96 -3 -137 1 l-73 6
-47 92 -48 92 25 75 c14 41 45 116 69 167 l43 92 87 1 86 0 21 -34z m-1732 -6
c9 0 12 -6 9 -17 -10 -33 -46 -168 -62 -233 -8 -36 -29 -110 -45 -164 -16 -55
-26 -103 -22 -107 5 -4 40 -12 78 -19 61 -10 191 -57 182 -66 -2 -2 -63 8
-137 21 -73 14 -146 25 -163 25 -19 0 -28 4 -24 13 16 44 129 436 143 497 10
41 19 69 21 63 3 -7 11 -13 20 -13z m3279 -144 c21 -88 98 -342 120 -400 3 -9
-16 -16 -68 -25 -63 -10 -112 -19 -258 -46 -20 -4 -18 -1 10 14 40 21 157 58
213 66 20 3 37 11 37 17 0 6 -13 54 -29 107 -16 53 -46 160 -66 238 -36 139
-36 142 -18 167 l18 24 7 -26 c4 -15 19 -76 34 -136z m-3048 -21 c162 -121
210 -165 181 -165 -5 0 -90 59 -189 130 -127 93 -180 137 -180 150 0 11 2 20
4 20 3 0 85 -61 184 -135z m3456 -54 c3 -5 -30 -42 -74 -84 -67 -62 -82 -72
-92 -60 -9 12 1 27 61 84 68 66 93 80 105 60z m-4041 -60 c53 -55 68 -81 49
-81 -14 0 -133 126 -126 133 13 13 20 8 77 -52z m494 -179 c40 -31 71 -58 69
-59 -11 -11 -83 27 -157 84 -69 51 -89 72 -89 91 0 23 2 22 53 -18 28 -24 84
-68 124 -98z m3770 81 c5 -13 -295 -293 -313 -293 -33 0 -18 24 53 92 43 40
111 106 153 146 71 68 98 82 107 55z m-4454 -78 c45 -44 143 -138 217 -209
l135 -129 -62 33 c-71 37 -119 77 -288 241 -110 107 -139 149 -100 145 8 0 52
-37 98 -81z m492 -37 c6 -4 2 -8 -7 -8 -10 0 -18 7 -18 17 0 9 3 12 8 7 4 -5
12 -12 17 -16z m1641 -182 c-3 -52 -14 -111 -22 -133 -24 -55 -21 -134 7 -183
46 -81 105 -56 130 54 11 50 10 63 -9 128 -14 47 -22 100 -22 150 0 72 1 76
20 71 24 -6 41 -38 106 -190 25 -60 84 -183 131 -276 48 -92 84 -169 82 -172
-3 -2 -68 -9 -144 -16 -132 -11 -571 -7 -583 6 -3 3 33 85 81 183 47 97 104
224 127 282 87 225 107 245 96 96z m-1326 -22 c0 -12 -204 -214 -216 -214 -31
0 -20 22 38 78 122 115 178 159 178 136z m104 -88 l31 -40 -33 20 c-19 10 -48
31 -65 46 -27 23 -29 29 -17 37 17 11 35 -2 84 -63z m2731 -20 c91 -85 98 -94
80 -104 -18 -9 -33 3 -127 94 -95 93 -103 104 -80 104 20 0 53 -25 127 -94z
m25 -125 c0 -3 -22 17 -50 44 -28 28 -50 43 -50 35 0 -13 -1 -13 -9 0 -6 8 -7
18 -5 22 9 15 -14 8 -60 -16 -50 -27 -69 -19 -34 13 12 12 24 21 27 21 3 0 13
5 21 10 12 8 9 16 -20 47 -19 21 14 -9 73 -67 59 -57 107 -107 107 -109z
m-2720 -113 c0 -8 -35 3 -73 23 -12 7 -38 28 -57 48 -19 20 -55 53 -79 73 -26
20 -41 40 -37 47 5 7 50 -24 127 -86 65 -54 119 -101 119 -105z"/>
<path d="M2242 6630 c-30 -5 -81 -22 -115 -38 -245 -121 -312 -441 -140 -670
l25 -33 -42 -70 c-28 -47 -39 -76 -35 -89 7 -22 92 -70 122 -70 11 0 33 24 56
61 34 56 40 61 65 55 224 -51 416 36 509 229 18 38 33 77 33 86 0 20 20 29 61
29 51 0 69 30 69 115 0 41 -5 85 -11 98 -15 33 -52 48 -97 41 -36 -5 -38 -4
-62 42 -54 104 -175 190 -299 214 -59 11 -62 11 -139 0z m116 -130 c6 -22 12
-49 12 -60 0 -34 16 -22 34 25 10 25 21 45 24 45 19 -1 100 -62 116 -88 4 -7
-4 -21 -21 -36 -34 -30 -25 -43 18 -26 28 12 33 12 45 -5 8 -10 14 -25 14 -32
0 -12 -45 -46 -75 -57 -20 -7 5 -18 49 -23 l46 -6 -32 -36 -32 -36 37 -3 c36
-3 47 -14 27 -27 -5 -3 -14 -23 -20 -45 -8 -28 -16 -40 -33 -42 -18 -2 -23
-10 -25 -43 -4 -45 -29 -77 -74 -96 -29 -12 -32 -11 -53 15 -28 35 -45 27 -45
-20 l0 -34 -65 0 c-68 0 -71 3 -55 44 7 19 6 29 -6 41 -24 24 -42 18 -55 -20
-7 -19 -17 -35 -23 -35 -23 0 -146 153 -146 183 0 8 18 19 40 26 44 13 45 14
29 43 -9 17 -17 19 -50 14 -47 -8 -54 3 -45 69 5 33 12 45 24 45 14 0 14 2 3
9 -12 8 -10 18 9 65 20 50 76 116 99 116 5 0 21 -18 36 -40 46 -66 72 -52 54
30 -6 28 -8 54 -5 57 7 7 71 20 106 22 21 1 27 -6 38 -39z m387 -300 c0 -25
-5 -36 -17 -38 -15 -3 -18 4 -18 38 0 34 3 41 18 38 12 -2 17 -13 17 -38z
m-668 -381 c32 -20 41 -48 18 -55 -16 -5 -79 52 -71 64 10 16 13 15 53 -9z"/>
<path d="M6405 8240 c10 -11 20 -20 23 -20 3 0 -3 9 -13 20 -10 11 -20 20 -23
20 -3 0 3 -9 13 -20z"/>
<path d="M5895 8260 c10 -11 20 -20 23 -20 3 0 -3 9 -13 20 -10 11 -20 20 -23
20 -3 0 3 -9 13 -20z"/>
<path d="M6215 7890 c9 -16 18 -30 21 -30 2 0 -2 14 -11 30 -9 17 -18 30 -21
30 -2 0 2 -13 11 -30z"/>
<path d="M3918 8093 c7 -3 16 -2 19 1 4 3 -2 6 -13 5 -11 0 -14 -3 -6 -6z"/>
<path d="M3940 6554 c-116 -25 -243 -86 -320 -155 -31 -27 -32 -29 -5 -11 57
37 150 80 235 107 160 52 390 46 570 -15 68 -23 45 -1 -40 37 -114 52 -300 68
-440 37z"/>
<path d="M5943 6550 c-81 -21 -168 -56 -183 -75 -6 -8 8 -6 43 6 114 38 214
52 351 46 153 -5 248 -31 384 -102 45 -24 82 -42 82 -41 0 10 -132 93 -193
121 -140 65 -338 83 -484 45z"/>
<path d="M4675 6502 c15 -17 140 -61 214 -77 174 -36 356 -27 516 26 96 32
137 57 75 45 -173 -33 -228 -39 -375 -38 -145 0 -329 21 -420 48 -14 4 -17 3
-10 -4z"/>
<path d="M3798 6063 c6 -2 18 -2 25 0 6 3 1 5 -13 5 -14 0 -19 -2 -12 -5z"/>
<path d="M3758 6053 c7 -3 16 -2 19 1 4 3 -2 6 -13 5 -11 0 -14 -3 -6 -6z"/>
<path d="M3810 5849 c-199 -51 -358 -179 -450 -361 -55 -111 -74 -203 -68
-346 9 -202 76 -351 222 -490 136 -129 298 -188 496 -179 136 6 237 38 343
108 197 131 297 326 297 579 0 175 -43 304 -149 443 -27 36 -47 68 -45 71 2 3
1 4 -2 2 -3 -3 -33 17 -66 44 -162 131 -382 180 -578 129z m34 -106 c-9 -27
-19 -61 -24 -78 -4 -16 -13 -43 -20 -60 -7 -16 -16 -44 -19 -61 -4 -21 -23
-44 -61 -75 -72 -58 -130 -146 -159 -239 -12 -41 -40 -120 -62 -175 -21 -55
-45 -120 -52 -145 l-13 -45 -27 67 c-123 308 10 669 299 808 42 20 122 47 146
49 4 1 0 -20 -8 -46z m375 -284 c70 -47 130 -124 162 -208 28 -77 29 -204 1
-284 -56 -159 -221 -277 -387 -277 -55 0 -156 28 -213 58 l-34 19 50 53 49 54
53 -17 c69 -23 117 -21 186 4 111 42 177 132 177 244 1 109 -57 194 -159 236
l-54 22 35 24 c26 18 39 36 47 68 7 25 15 45 19 45 4 0 34 -18 68 -41z m-456
-143 l37 -15 -25 -37 c-36 -53 -58 -136 -50 -187 4 -23 20 -68 35 -100 l29
-58 -46 -42 c-25 -23 -49 -43 -53 -45 -11 -4 -66 88 -83 139 -38 115 -25 251
34 343 29 47 29 47 57 32 15 -9 44 -22 65 -30z m302 -92 c87 -40 85 -183 -4
-229 -66 -34 -154 -8 -187 56 -24 47 -14 112 22 150 46 48 98 55 169 23z m429
-364 c22 0 20 -9 -10 -55 -67 -101 -189 -197 -299 -235 -74 -25 -197 -44 -241
-36 l-32 6 12 53 11 52 85 6 c149 10 263 74 357 202 l35 47 33 -20 c18 -11 40
-20 49 -20z"/>
<path d="M4045 5158 c5 -12 -3 -19 -32 -28 -68 -22 -95 -83 -51 -114 34 -24
66 -19 99 13 38 39 40 88 3 122 -16 15 -23 18 -19 7z"/>
<path d="M3046 5395 c-3 -9 -6 -86 -6 -171 l0 -154 57 0 c44 0 63 -5 87 -24
l32 -24 -1 92 c0 50 2 127 5 171 l5 79 -55 17 c-99 30 -117 32 -124 14z"/>
<path d="M6034 5855 c-138 -37 -230 -91 -335 -195 -163 -162 -236 -425 -180
-650 51 -205 181 -375 351 -458 103 -51 178 -71 290 -79 261 -18 525 140 645
384 93 192 89 446 -12 652 -79 161 -271 309 -448 346 -87 18 -243 18 -311 0z
m-49 -112 c-2 -16 -20 -70 -40 -122 -19 -52 -37 -102 -38 -111 -1 -8 -23 -43
-48 -75 -26 -33 -89 -148 -142 -257 -53 -108 -100 -199 -105 -202 -26 -16 -47
167 -32 276 30 218 171 417 353 498 55 25 56 24 52 -7z m331 -203 c19 -7 23
-14 17 -23 -5 -6 -22 -42 -38 -79 l-28 -68 -71 0 c-87 0 -137 -21 -188 -78
-39 -44 -58 -93 -58 -157 0 -22 -4 -46 -9 -54 -13 -20 4 -79 30 -107 29 -31
164 -74 233 -74 l54 0 25 -82 c17 -53 23 -86 17 -92 -18 -18 -134 -19 -201 -2
-167 43 -279 169 -309 348 -15 84 -2 165 37 243 62 121 183 214 313 239 35 6
145 -3 176 -14z m191 -124 c21 -24 48 -62 61 -85 l23 -41 -24 0 c-13 0 -50 -9
-82 -20 -72 -25 -69 -25 -85 5 -7 14 -25 33 -40 43 l-27 17 39 83 39 83 29
-21 c16 -11 46 -40 67 -64z m-228 -197 c31 -31 40 -74 24 -115 -5 -14 -9 -11
-18 16 -16 49 -34 56 -81 34 -21 -10 -42 -23 -46 -28 -16 -22 -8 -65 14 -80
20 -14 20 -16 4 -16 -10 0 -33 15 -52 34 -29 29 -34 41 -34 81 0 38 5 52 29
76 25 24 38 29 79 29 43 0 55 -5 81 -31z m271 -122 c0 -83 4 -118 15 -134 13
-19 11 -25 -23 -74 -40 -56 -137 -142 -155 -136 -6 2 -23 40 -38 86 l-28 82
41 37 c53 48 78 102 78 173 l0 57 48 10 c26 5 50 10 55 11 4 0 7 -50 7 -112z
m-378 -424 c97 -6 94 -4 100 -83 l3 -45 -100 1 c-55 0 -119 6 -142 12 l-42 12
16 38 c8 20 19 48 24 61 7 18 14 22 32 16 12 -4 61 -9 109 -12z"/>
<path d="M5436 2023 c-6 -14 -5 -15 5 -6 7 7 10 15 7 18 -3 3 -9 -2 -12 -12z"/>
</g>
</svg>
